<?xml version="1.0" encoding="iso-8859-1"?>
<!-- Generator: Adobe Illustrator 18.0.0, SVG Export Plug-In . SVG Version: 6.00 Build 0)  -->
<!DOCTYPE svg PUBLIC "-//W3C//DTD SVG 1.1//EN" "http://www.w3.org/Graphics/SVG/1.1/DTD/svg11.dtd">
<svg version="1.1" id="Capa_1" xmlns="http://www.w3.org/2000/svg" xmlns:xlink="http://www.w3.org/1999/xlink" x="0px" y="0px"
	 viewBox="0 0 297 297" style="enable-background:new 0 0 297 297;" xml:space="preserve">
<g>
	<path d="M294.908,90.46c-0.566-0.756-14.169-18.72-38.883-36.693c-32.842-23.886-70.022-36.511-107.524-36.511
		c-37.501,0-74.683,12.625-107.525,36.51C16.261,71.74,2.658,89.704,2.092,90.46c-3.123,4.163-2.708,9.988,0.972,13.669
		c0.64,0.641,5.496,5.409,14.192,11.884v104.123c0,14.993,12.196,27.189,27.189,27.189h1.046c14.993,0,27.19-12.196,27.19-27.189
		v-8.051c2.015,0.477,4.115,0.73,6.274,0.73h1.046c14.993,0,27.19-12.197,27.19-27.19v-30.503
		c12.748,2.398,26.536,3.836,41.309,3.836c8.238,0,16.17-0.448,23.788-1.259v94.855c0,14.993,12.197,27.189,27.19,27.189h1.046
		c14.993,0,27.189-12.196,27.189-27.189v-25.307c2.016,0.478,4.116,0.73,6.275,0.73h1.046c14.992,0,27.19-12.196,27.19-27.189
		v-73.096c19.705-11.765,30.723-22.575,31.711-23.564C297.616,100.448,298.031,94.623,294.908,90.46z M207.064,96.734
		c0,26.424-18.318,40.285-54.452,41.249c-1.364,0.027-2.727,0.059-4.111,0.059c-1.389,0-2.756-0.031-4.127-0.059
		c-36.123-0.968-54.437-14.829-54.437-41.249c0-32.292,26.271-58.564,58.563-58.564S207.064,64.442,207.064,96.734z M81.739,53.693
		C73.707,66.107,69.022,80.88,69.022,96.734c0,10.217,1.949,19.298,5.689,27.163c-23.601-9.358-40.573-21.166-49.54-28.279
		C34.549,85.463,54.03,66.959,81.739,53.693z M86.276,185.625c0,3.4-2.874,6.274-6.274,6.274h-1.046c-3.4,0-6.274-2.874-6.274-6.274
		c0-5.775-4.683-10.458-10.458-10.458s-10.458,4.683-10.458,10.458v34.511c0,3.4-2.873,6.275-6.274,6.275h-1.046
		c-3.4,0-6.274-2.874-6.274-6.275V129.68c12.824,7.345,28.967,14.859,48.105,20.44V185.625z M241.31,200.789
		c0,3.4-2.874,6.274-6.274,6.274h-1.046c-3.401,0-6.275-2.874-6.275-6.274c0-5.775-4.682-10.458-10.457-10.458
		c-5.775,0-10.458,4.683-10.458,10.458v51.766c0,3.4-2.874,6.274-6.274,6.274h-1.046c-3.401,0-6.274-2.874-6.274-6.274v-98.099
		c18.354-3.754,34.465-9.482,48.105-15.756V200.789z M222.246,123.987c3.768-7.886,5.733-16.996,5.733-27.253
		c0-15.913-4.719-30.738-12.806-43.182c9.536,4.568,18.876,10.144,27.993,16.725c13.118,9.469,22.852,19.038,28.682,25.364
		C262.898,102.78,245.933,114.627,222.246,123.987z"/>
	<circle cx="148.501" cy="96.734" r="17.255"/>
</g>
<g>
</g>
<g>
</g>
<g>
</g>
<g>
</g>
<g>
</g>
<g>
</g>
<g>
</g>
<g>
</g>
<g>
</g>
<g>
</g>
<g>
</g>
<g>
</g>
<g>
</g>
<g>
</g>
<g>
</g>
</svg>
