<?xml version="1.0" encoding="iso-8859-1"?>
<!-- Generator: Adobe Illustrator 18.0.0, SVG Export Plug-In . SVG Version: 6.00 Build 0)  -->
<!DOCTYPE svg PUBLIC "-//W3C//DTD SVG 1.1//EN" "http://www.w3.org/Graphics/SVG/1.1/DTD/svg11.dtd">
<svg version="1.1" id="Capa_1" xmlns="http://www.w3.org/2000/svg" xmlns:xlink="http://www.w3.org/1999/xlink" x="0px" y="0px"
	 viewBox="0 0 297 297" style="enable-background:new 0 0 297 297;" xml:space="preserve">
<g>
	<path d="M267.573,140.865C296.642,107.979,297,76.521,297,75.114c0-5.458-4.426-9.884-9.884-9.884h-146.77
		c-35.839,0-71.269,14.986-102.458,43.34c-23.234,21.122-35.952,42.115-36.482,42.998c-0.02,0.034-0.029,0.059-0.048,0.093
		c-1.973,3.363-1.818,7.676,0.616,10.923c0.536,0.715,13.393,17.692,36.749,34.68c31.041,22.574,66.182,34.506,101.623,34.506
		c35.443,0,70.583-11.932,101.622-34.507c23.356-16.986,36.211-33.964,36.747-34.679c2.951-3.935,2.56-9.44-0.918-12.919
		C277.274,149.143,273.79,145.721,267.573,140.865z M275.798,84.998c-2.335,10.19-8.471,26.956-24.567,44.475
		c-23.336-14.558-61.27-31.625-110.883-31.626c-0.001,0-0.001,0-0.001,0h-0.001h-0.001c-29.403,0-54.702,5.997-75.297,13.912
		c23.883-17.769,49.146-26.761,75.298-26.761H275.798z M195.694,156.654c0,30.52-24.829,55.348-55.349,55.348
		s-55.348-24.828-55.348-55.348c0-24.97,17.308-38.07,51.447-38.984c1.294-0.026,2.585-0.057,3.896-0.057c0.002,0,0.003,0,0.005,0
		c1.313,0,2.606,0.03,3.901,0.057C178.387,118.584,195.694,131.685,195.694,156.654z M23.788,157.71
		c8.479-6.727,24.518-17.886,46.819-26.729c-3.534,7.435-5.377,16.016-5.377,25.673c0,15.04,4.461,29.05,12.104,40.811
		c-9.014-4.316-17.842-9.587-26.459-15.807C38.493,172.72,29.301,163.687,23.788,157.71z M229.813,181.658
		c-8.615,6.22-17.442,11.489-26.454,15.807c7.642-11.761,12.102-25.771,12.102-40.811c0-9.656-1.842-18.238-5.376-25.672
		c22.304,8.845,38.343,20.004,46.816,26.727C251.387,163.689,242.195,172.721,229.813,181.658z"/>
	<circle cx="140.346" cy="156.654" r="16.308"/>
</g>
<g>
</g>
<g>
</g>
<g>
</g>
<g>
</g>
<g>
</g>
<g>
</g>
<g>
</g>
<g>
</g>
<g>
</g>
<g>
</g>
<g>
</g>
<g>
</g>
<g>
</g>
<g>
</g>
<g>
</g>
</svg>
