<?xml version="1.0" encoding="iso-8859-1"?>
<!-- Generator: Adobe Illustrator 18.0.0, SVG Export Plug-In . SVG Version: 6.00 Build 0)  -->
<!DOCTYPE svg PUBLIC "-//W3C//DTD SVG 1.1//EN" "http://www.w3.org/Graphics/SVG/1.1/DTD/svg11.dtd">
<svg version="1.1" id="Capa_1" xmlns="http://www.w3.org/2000/svg" xmlns:xlink="http://www.w3.org/1999/xlink" x="0px" y="0px"
	 viewBox="0 0 296.979 296.979" style="enable-background:new 0 0 296.979 296.979;" xml:space="preserve">
<g>
	<path d="M9.414,136.726c-1.313,3.921-20.813,59.75,0.484,102.343c5.151,10.304,13.679,17.715,24.012,20.869
		c3.667,1.12,7.471,1.673,11.249,1.673c5.78,0,11.501-1.294,16.59-3.839c13.218-6.608,22.846-22.913,12.755-43.096
		c-4.765-9.529-7.991-17.494-10.185-23.894c25.422,14.41,52.969,21.949,80.705,21.949c34.38,0,68.466-11.574,98.573-33.472
		c22.656-16.477,35.125-32.945,35.644-33.639c2.862-3.816,2.483-9.157-0.89-12.531c-1.652-1.652-33.842-33.219-89.179-45.463
		c57.984,5.955,92.52,28.33,92.9,28.582c4.404,2.936,10.357,1.746,13.295-2.659c2.938-4.405,1.747-10.358-2.659-13.295
		c-1.101-0.733-15.877-10.397-42.03-19.118c10.759-2.754,21.1-7.008,27.673-13.582c3.744-3.744,3.744-9.814,0-13.559
		c-3.744-3.743-9.814-3.743-13.559,0c-7.508,7.51-28.137,11.289-44.738,12.531c8.125-8.451,12.284-16.578,12.637-17.283
		c2.368-4.736,0.448-10.494-4.288-12.862c-4.736-2.369-10.494-0.449-12.862,4.288c-0.132,0.263-17.237,26.578-42.655,26.578
		c2.606-3.841,5.235-8.291,7.833-13.488c0.688-1.375,1.014-2.838,1.014-4.279c0-3.518-1.941-6.902-5.302-8.582
		c-4.735-2.368-10.494-0.448-12.862,4.288c-6.157,12.313-12.024,18.898-16.371,22.407C71.699,73.94,14.231,130.536,11.692,133.091
		C10.936,133.851,10.087,134.714,9.414,136.726z M198.711,139.87c0,29.604-24.084,53.688-53.689,53.688
		c-29.604,0-53.688-24.084-53.688-53.688c0-24.225,16.793-36.932,49.919-37.814c1.25-0.025,2.5-0.055,3.768-0.055
		c1.273,0,2.527,0.029,3.783,0.055C181.922,102.942,198.711,115.649,198.711,139.87z M31.941,140.872
		c8.206-6.545,23.76-17.404,45.478-25.987c-3.455,7.229-5.257,15.582-5.257,24.985c0,14.59,4.326,28.18,11.74,39.586
		c-8.744-4.187-17.307-9.299-25.665-15.332C46.21,155.443,37.287,146.671,31.941,140.872z M59.005,234.458
		c-1.114,3.243-3.786,5.143-5.832,6.165c-6.996,3.499-19.729,2.667-26.126-10.128c-11.657-23.314-8.011-53.127-4.008-71.205
		c4.648,4.64,10.577,10.072,17.717,15.669c0.744,6.712,3.838,22.773,16.598,48.292C58.841,226.226,60.335,230.585,59.005,234.458z
		 M231.807,164.124c-8.356,6.033-16.92,11.145-25.661,15.332c7.413-11.406,11.739-24.997,11.739-39.586
		c0-9.366-1.787-17.691-5.215-24.901c21.635,8.578,37.192,19.403,45.411,25.925C252.733,146.694,243.818,155.455,231.807,164.124z"
		/>
	<path d="M119.618,139.87c0,14.009,11.396,25.406,25.405,25.406c14.01,0,25.406-11.397,25.406-25.406
		c0-14.009-11.396-25.406-25.406-25.406C131.014,114.464,119.618,125.861,119.618,139.87z M151.255,139.87
		c0,3.436-2.796,6.231-6.232,6.231c-3.436,0-6.231-2.796-6.231-6.231c0-3.436,2.796-6.231,6.231-6.231
		C148.459,133.639,151.255,136.434,151.255,139.87z"/>
</g>
<g>
</g>
<g>
</g>
<g>
</g>
<g>
</g>
<g>
</g>
<g>
</g>
<g>
</g>
<g>
</g>
<g>
</g>
<g>
</g>
<g>
</g>
<g>
</g>
<g>
</g>
<g>
</g>
<g>
</g>
</svg>
