<?xml version="1.0" encoding="iso-8859-1"?>
<!-- Generator: Adobe Illustrator 18.0.0, SVG Export Plug-In . SVG Version: 6.00 Build 0)  -->
<!DOCTYPE svg PUBLIC "-//W3C//DTD SVG 1.1//EN" "http://www.w3.org/Graphics/SVG/1.1/DTD/svg11.dtd">
<svg version="1.1" id="Capa_1" xmlns="http://www.w3.org/2000/svg" xmlns:xlink="http://www.w3.org/1999/xlink" x="0px" y="0px"
	 viewBox="0 0 297 297" style="enable-background:new 0 0 297 297;" xml:space="preserve">
<g>
	<path d="M292.598,135.619c-1.122-0.748-16.021-10.777-42.414-19.949c10.76-2.845,21.024-7.173,27.613-13.762
		c3.859-3.86,3.859-10.118,0-13.979c-3.86-3.858-10.117-3.858-13.978,0c-7.741,7.742-29.007,11.638-46.123,12.919
		c8.377-8.712,12.665-17.09,13.028-17.818c2.441-4.882,0.463-10.818-4.42-13.259c-4.882-2.441-10.819-0.464-13.26,4.42
		c-0.129,0.256-12.316,24.077-35.599,26.877c-2.62-0.18-5.279-0.327-7.977-0.441c8.04-13.544,9.975-26.694,10.109-27.658
		c0.744-5.407-3.036-10.395-8.443-11.139c-5.408-0.745-10.396,3.035-11.14,8.443c-0.032,0.235-2.724,18.561-15.77,30.56
		c-78.638,5.939-138.686,65.992-141.33,68.636c-0.195,0.194-0.355,0.375-0.497,0.549C0.861,171.804,0,174.084,0,176.457
		c0,2.622,1.041,5.136,2.894,6.989c2.116,2.116,52.794,51.817,137.452,51.817c84.659,0,135.334-49.701,137.449-51.817
		c3.859-3.859,3.859-10.118,0-13.978c-1.703-1.704-34.888-34.246-91.936-46.868c59.777,6.139,95.381,29.206,95.773,29.465
		c4.54,3.026,10.677,1.801,13.705-2.741C298.366,144.783,297.14,138.646,292.598,135.619z M140.347,215.003
		c-36.726,0-55.347-12.641-55.347-38.546c0-25.904,18.621-38.545,55.347-38.545c36.727,0,55.348,12.641,55.348,38.545
		C195.694,202.362,177.073,215.003,140.347,215.003z M70.657,150.689c-3.564,7.455-5.425,16.07-5.425,25.768
		c0,9.66,1.844,18.244,5.38,25.679c-21.202-8.405-36.739-18.906-45.504-25.699C33.863,169.618,49.391,159.091,70.657,150.689z
		 M210.037,202.225c3.565-7.456,5.425-16.07,5.425-25.769c0-9.658-1.844-18.242-5.381-25.678
		c21.201,8.405,36.737,18.906,45.502,25.699C246.828,183.297,231.303,193.823,210.037,202.225z"/>
	<path d="M140.347,150.266c-14.441,0-26.19,11.749-26.19,26.19c0,14.442,11.749,26.191,26.19,26.191
		c14.442,0,26.191-11.749,26.191-26.191C166.538,162.015,154.789,150.266,140.347,150.266z M140.347,182.882
		c-3.542,0-6.424-2.882-6.424-6.425c0-3.542,2.882-6.424,6.424-6.424c3.543,0,6.425,2.882,6.425,6.424
		C146.771,180,143.89,182.882,140.347,182.882z"/>
</g>
<g>
</g>
<g>
</g>
<g>
</g>
<g>
</g>
<g>
</g>
<g>
</g>
<g>
</g>
<g>
</g>
<g>
</g>
<g>
</g>
<g>
</g>
<g>
</g>
<g>
</g>
<g>
</g>
<g>
</g>
</svg>
