<?xml version="1.0" encoding="iso-8859-1"?>
<!-- Generator: Adobe Illustrator 18.0.0, SVG Export Plug-In . SVG Version: 6.00 Build 0)  -->
<!DOCTYPE svg PUBLIC "-//W3C//DTD SVG 1.1//EN" "http://www.w3.org/Graphics/SVG/1.1/DTD/svg11.dtd">
<svg version="1.1" id="Capa_1" xmlns="http://www.w3.org/2000/svg" xmlns:xlink="http://www.w3.org/1999/xlink" x="0px" y="0px"
	 viewBox="0 0 297 297" style="enable-background:new 0 0 297 297;" xml:space="preserve">
<g>
	<path d="M294.908,151.21c-0.566-0.755-14.167-18.719-38.879-36.69c-32.84-23.885-70.02-36.51-107.52-36.51
		c-37.498,0-74.679,12.625-107.52,36.509C16.278,132.491,2.675,150.455,2.109,151.21c-2.482,3.31-2.809,7.773-0.789,11.385
		c2.021,3.608,5.95,5.684,10.07,5.308c0.011-0.002,1.037-0.084,3.009-0.084c10.586,0,49.959,2.417,112.182,33.528
		c23.414,11.707,46.318,17.644,68.077,17.644c66.414,0,99.477-53.834,100.853-56.126
		C297.698,159.219,297.459,154.612,294.908,151.21z M53.848,131.029c11.048-7.975,22.424-14.477,34.079-19.493
		c-10.382,12.229-17.129,27.623-18.577,44.515c-14.587-4.218-26.702-6.542-36.19-7.789
		C38.616,143.041,45.556,137.016,53.848,131.029z M89.953,162.766c0.069-32.232,26.31-58.434,58.557-58.434
		c32.291,0,58.561,26.27,58.561,58.56c0,12.747-4.149,25.065-11.747,35.171c-0.224,0.001-0.441,0.013-0.666,0.013
		c-18.482,0-38.24-5.192-58.726-15.436C119.031,174.189,103.684,167.721,89.953,162.766z M221.575,194.168
		c4.195-9.799,6.409-20.425,6.409-31.276c0-19.566-7.122-37.491-18.89-51.355c11.654,5.016,23.028,11.518,34.075,19.492
		c14.312,10.33,24.596,20.781,30.177,27.008C265.882,167.593,248.553,186.114,221.575,194.168z"/>
	<circle cx="148.51" cy="157.485" r="17.254"/>
</g>
<g>
</g>
<g>
</g>
<g>
</g>
<g>
</g>
<g>
</g>
<g>
</g>
<g>
</g>
<g>
</g>
<g>
</g>
<g>
</g>
<g>
</g>
<g>
</g>
<g>
</g>
<g>
</g>
<g>
</g>
</svg>
