<?xml version="1.0" encoding="iso-8859-1"?>
<!-- Generator: Adobe Illustrator 18.0.0, SVG Export Plug-In . SVG Version: 6.00 Build 0)  -->
<!DOCTYPE svg PUBLIC "-//W3C//DTD SVG 1.1//EN" "http://www.w3.org/Graphics/SVG/1.1/DTD/svg11.dtd">
<svg version="1.1" id="Capa_1" xmlns="http://www.w3.org/2000/svg" xmlns:xlink="http://www.w3.org/1999/xlink" x="0px" y="0px"
	 viewBox="0 0 297 297" style="enable-background:new 0 0 297 297;" xml:space="preserve">
<path d="M296.464,179.704c-0.378-1.134-9.511-28.066-32.084-55.153c-30.273-36.328-70.342-55.529-115.878-55.529
	c-45.537,0-85.607,19.201-115.881,55.527C10.048,151.638,0.914,178.57,0.536,179.704c-0.716,2.147-0.715,4.469,0.002,6.616
	c0.228,0.686,5.743,16.998,18.654,36.894c1.945,2.998,5.263,4.765,8.771,4.765c0.491,0,0.988-0.034,1.484-0.105
	c35.058-5.02,73.611-7.563,114.589-7.563c69.764,0,122.989,7.487,123.519,7.563c4.042,0.573,8.035-1.244,10.254-4.66
	c12.909-19.896,18.426-36.208,18.653-36.894C297.179,184.174,297.18,181.852,296.464,179.704z M99.263,151.326
	c16.266-25.445,51.086-34.22,77.615-19.556c24.027,13.277,35.586,43.224,27.271,69.343c-10.317-0.585-21.566-1.074-33.567-1.379
	c3.531-4.651,5.633-10.446,5.633-16.724c0-15.281-12.432-27.713-27.713-27.713c-15.281,0-27.713,12.432-27.713,27.713
	c0,6.199,2.046,11.929,5.497,16.548c-11.393,0.207-22.593,0.607-33.571,1.208C87.494,184.355,89.887,165.992,99.263,151.326z
	 M141.704,183.011c0-3.748,3.05-6.798,6.798-6.798c3.748,0,6.798,3.05,6.798,6.798c0,3.748-3.05,6.798-6.798,6.798
	C144.754,189.809,141.704,186.759,141.704,183.011z M263.718,206.282c-7.472-0.917-20.743-2.394-38.269-3.746
	c8.367-34.162-7.354-71.886-38.455-89.071C150.998,93.57,103.736,105.5,81.64,140.06c-11.774,18.417-15.433,41.172-10.259,62.146
	c-13.072,1.052-25.799,2.392-38.127,4.029c-6.07-10.163-9.831-18.751-11.621-23.223c3.02-7.533,11.63-26.727,27.503-45.606
	c26.481-31.499,59.913-47.47,99.366-47.47c39.452,0,72.883,15.971,99.364,47.47c15.876,18.885,24.486,38.085,27.501,45.605
	C273.572,187.496,269.802,196.104,263.718,206.282z"/>
<g>
</g>
<g>
</g>
<g>
</g>
<g>
</g>
<g>
</g>
<g>
</g>
<g>
</g>
<g>
</g>
<g>
</g>
<g>
</g>
<g>
</g>
<g>
</g>
<g>
</g>
<g>
</g>
<g>
</g>
</svg>
