<?xml version="1.0" encoding="iso-8859-1"?>
<!-- Generator: Adobe Illustrator 18.0.0, SVG Export Plug-In . SVG Version: 6.00 Build 0)  -->
<!DOCTYPE svg PUBLIC "-//W3C//DTD SVG 1.1//EN" "http://www.w3.org/Graphics/SVG/1.1/DTD/svg11.dtd">
<svg version="1.1" id="Capa_1" xmlns="http://www.w3.org/2000/svg" xmlns:xlink="http://www.w3.org/1999/xlink" x="0px" y="0px"
	 viewBox="0 0 297 297" style="enable-background:new 0 0 297 297;" xml:space="preserve">
<path d="M294.908,142.226c-0.566-0.756-14.168-18.72-38.881-36.693c-32.842-23.886-70.023-36.511-107.525-36.511h-0.001l0,0l0,0
	c-37.501,0-74.682,12.625-107.525,36.51C16.262,123.506,2.658,141.47,2.092,142.226c-2.789,3.718-2.789,8.831,0,12.549
	c0.566,0.756,14.17,18.72,38.884,36.694c32.844,23.885,70.024,36.51,107.525,36.51l0,0l0,0h0.001
	c37.502,0,74.683-12.625,107.525-36.511c24.713-17.974,38.315-35.938,38.881-36.693
	C297.697,151.057,297.697,145.943,294.908,142.226z M138.043,90.891v14.363c-13.086,2.117-23.445,13.578-23.445,26.911
	c0,14.779,12.727,27.266,27.791,27.266h12.225c3.469,0,6.875,3.145,6.875,6.351c0,3.203-3.406,6.348-6.875,6.348h-29.558
	c-5.775,0-10.458,4.683-10.458,10.458c0,5.775,4.683,10.458,10.458,10.458h12.987v13.064c-27.316-4.947-48.105-28.889-48.105-57.609
	S110.727,95.838,138.043,90.891z M158.959,206.109v-13.418c13.086-2.117,23.445-13.578,23.445-26.91
	c0-14.78-12.728-27.266-27.791-27.266h-12.225c-3.469,0-6.875-3.146-6.875-6.351c0-3.205,3.406-6.35,6.875-6.35h29.558
	c5.775,0,10.458-4.683,10.458-10.458s-4.683-10.457-10.458-10.457h-12.987v-14.01c27.317,4.947,48.106,28.887,48.106,57.609
	C207.065,177.222,186.276,201.162,158.959,206.109z M24.153,148.5c5.686-6.283,15.785-16.427,29.681-26.457
	c9.118-6.581,18.458-12.157,27.996-16.725c-8.088,12.443-12.807,27.268-12.807,43.182s4.719,30.738,12.807,43.182
	c-9.538-4.567-18.878-10.144-27.996-16.725C39.937,164.925,29.836,154.779,24.153,148.5z M243.167,174.957
	c-9.115,6.581-18.456,12.156-27.991,16.725c8.086-12.443,12.805-27.269,12.805-43.182s-4.719-30.738-12.805-43.182
	c9.535,4.568,18.876,10.144,27.991,16.725c13.897,10.032,23.998,20.178,29.68,26.457
	C267.162,154.783,257.063,164.927,243.167,174.957z"/>
<g>
</g>
<g>
</g>
<g>
</g>
<g>
</g>
<g>
</g>
<g>
</g>
<g>
</g>
<g>
</g>
<g>
</g>
<g>
</g>
<g>
</g>
<g>
</g>
<g>
</g>
<g>
</g>
<g>
</g>
</svg>
