<?xml version="1.0" encoding="iso-8859-1"?>
<!-- Generator: Adobe Illustrator 18.0.0, SVG Export Plug-In . SVG Version: 6.00 Build 0)  -->
<!DOCTYPE svg PUBLIC "-//W3C//DTD SVG 1.1//EN" "http://www.w3.org/Graphics/SVG/1.1/DTD/svg11.dtd">
<svg version="1.1" id="Capa_1" xmlns="http://www.w3.org/2000/svg" xmlns:xlink="http://www.w3.org/1999/xlink" x="0px" y="0px"
	 viewBox="0 0 297 297" style="enable-background:new 0 0 297 297;" xml:space="preserve">
<path d="M295.034,116.511c-2.667-3.711-7.444-5.254-11.781-3.82c-0.506,0.168-51.47,16.724-134.751,16.724
	c-56.257,0-97.762-7.554-118.931-12.508C48.181,98.167,90.083,64.05,148.5,64.05c5.775,0,10.458-4.683,10.458-10.458
	s-4.683-10.458-10.458-10.458c-37.504,0-74.687,12.625-107.529,36.513C16.256,97.62,2.652,115.585,2.086,116.341
	c-0.014,0.018-0.022,0.037-0.035,0.056c-0.026,0.035-0.056,0.068-0.082,0.104c-1.901,2.637-2.42,5.933-1.58,8.933
	c0.004,0.02,0.003,0.036,0.008,0.055c0.373,1.305,9.381,32.295,31.744,63.603c30.269,42.376,70.507,64.775,116.361,64.775
	c45.854,0,86.091-22.399,116.36-64.775c22.362-31.308,31.37-62.298,31.743-63.603c0.014-0.049,0.017-0.083,0.029-0.13
	C297.441,122.382,296.914,119.124,295.034,116.511z M148.591,180.922c-21.049,0-44.194-15.937-52.651-32.747
	c11.18,0.936,23.309,1.633,36.332,1.955c2.388,6.666,8.742,11.442,16.231,11.442c7.488,0,13.843-4.776,16.23-11.442
	c13.217-0.328,25.514-1.038,36.831-1.995C193.142,165.318,170.667,180.922,148.591,180.922z M224.905,145.679
	c10.676-1.349,20.149-2.868,28.328-4.384c-3.09,2.554-6.446,5.17-10.061,7.779c-9.01,6.504-18.238,12.022-27.657,16.561
	C219.562,159.51,222.758,152.808,224.905,145.679z M72.463,145.727c2.216,7.186,5.458,13.961,9.542,20.159
	c-9.6-4.584-19-10.189-28.174-16.811c-3.616-2.609-6.972-5.226-10.062-7.779C52.042,142.828,61.636,144.364,72.463,145.727z
	 M148.091,202.73c33.515,0.082,77.255-15.161,106.718-36.271c-2.244,3.619-4.676,7.291-7.31,10.953
	c-26.501,36.852-59.809,55.538-98.997,55.538c-39.19,0-72.498-18.686-98.998-55.538c-2.634-3.662-5.064-7.333-7.309-10.952
	C71.418,187.396,114.851,202.648,148.091,202.73z"/>
<g>
</g>
<g>
</g>
<g>
</g>
<g>
</g>
<g>
</g>
<g>
</g>
<g>
</g>
<g>
</g>
<g>
</g>
<g>
</g>
<g>
</g>
<g>
</g>
<g>
</g>
<g>
</g>
<g>
</g>
</svg>
