<?xml version="1.0" encoding="iso-8859-1"?>
<!-- Generator: Adobe Illustrator 18.0.0, SVG Export Plug-In . SVG Version: 6.00 Build 0)  -->
<!DOCTYPE svg PUBLIC "-//W3C//DTD SVG 1.1//EN" "http://www.w3.org/Graphics/SVG/1.1/DTD/svg11.dtd">
<svg version="1.1" id="Capa_1" xmlns="http://www.w3.org/2000/svg" xmlns:xlink="http://www.w3.org/1999/xlink" x="0px" y="0px"
	 viewBox="0 0 297 297" style="enable-background:new 0 0 297 297;" xml:space="preserve">
<g>
	<path d="M7.154,167.049c2.18,0.727,54.378,17.791,141.349,17.791c86.973,0,139.165-17.064,141.345-17.791
		c3.189-1.063,5.673-3.595,6.675-6.804c1.002-3.209,0.401-6.703-1.616-9.393c-0.566-0.755-14.167-18.719-38.881-36.691
		c-32.841-23.887-70.021-36.511-107.522-36.511c-37.5,0-74.682,12.624-107.525,36.509c-24.714,17.975-38.316,35.938-38.883,36.693
		c-2.018,2.689-2.619,6.184-1.616,9.393C1.481,163.454,3.964,165.986,7.154,167.049z M148.502,104.84
		c31.519,0,57.29,25.033,58.504,56.262c-12.801,1.262-27.028,2.219-42.56,2.618c0.841-2.032,1.311-4.257,1.311-6.592
		c0-9.53-7.725-17.256-17.255-17.256c-9.53,0-17.255,7.726-17.255,17.256c0,2.335,0.47,4.56,1.311,6.591
		c-15.531-0.398-29.759-1.355-42.56-2.616C91.212,129.873,116.982,104.84,148.502,104.84z M267.431,151.418
		c-9.374,2.193-22.743,4.895-39.606,7.227c-1.089-18.347-8.43-35.032-19.916-47.962c12.066,5.08,23.838,11.744,35.257,19.987
		C253.394,138.055,261.565,145.497,267.431,151.418z M53.836,130.671c11.42-8.243,23.192-14.907,35.262-19.988
		c-11.488,12.93-18.829,29.616-19.918,47.963c-16.865-2.332-30.235-5.034-39.609-7.227C35.438,145.496,43.61,138.054,53.836,130.671
		z"/>
	<path d="M296.461,188.33c-1.827-5.479-7.748-8.441-13.228-6.614c-0.501,0.168-51.12,16.719-134.73,16.719
		c-83.276,0-134.239-16.554-134.734-16.719c-5.481-1.827-11.401,1.136-13.228,6.614c-1.826,5.479,1.136,11.401,6.614,13.229
		c2.18,0.727,54.378,17.791,141.349,17.791c86.973,0,139.165-17.064,141.345-17.791C295.325,199.732,298.287,193.81,296.461,188.33z
		"/>
</g>
<g>
</g>
<g>
</g>
<g>
</g>
<g>
</g>
<g>
</g>
<g>
</g>
<g>
</g>
<g>
</g>
<g>
</g>
<g>
</g>
<g>
</g>
<g>
</g>
<g>
</g>
<g>
</g>
<g>
</g>
</svg>
