<?xml version="1.0" encoding="iso-8859-1"?>
<!-- Generator: Adobe Illustrator 18.0.0, SVG Export Plug-In . SVG Version: 6.00 Build 0)  -->
<!DOCTYPE svg PUBLIC "-//W3C//DTD SVG 1.1//EN" "http://www.w3.org/Graphics/SVG/1.1/DTD/svg11.dtd">
<svg version="1.1" id="Capa_1" xmlns="http://www.w3.org/2000/svg" xmlns:xlink="http://www.w3.org/1999/xlink" x="0px" y="0px"
	 viewBox="0 0 297.001 297.001" style="enable-background:new 0 0 297.001 297.001;" xml:space="preserve">
<g>
	<path d="M295.509,143.119c-0.561-0.934-14.016-23.148-38.6-45.497c-32.998-30-70.486-45.858-108.408-45.858
		S73.093,67.622,40.091,97.622C15.507,119.971,2.05,142.184,1.49,143.118c-1.986,3.312-1.986,7.45,0,10.762
		c0.56,0.935,14.017,23.147,38.601,45.495c32.984,29.985,70.451,45.841,108.352,45.857c0.018,0,0.033,0.003,0.051,0.003
		c0.01,0,0.021-0.002,0.033-0.002c37.914-0.007,75.391-15.864,108.383-45.858c24.584-22.348,38.039-44.562,38.6-45.496
		C297.498,150.569,297.498,146.43,295.509,143.119z M22.994,148.499c5.228-7.498,16.051-21.741,31.605-35.798
		c11.494-10.388,23.33-18.764,35.447-25.123l15.369,15.37c-6.93,6.557-12.375,14.662-15.756,23.77l-2.672-2.755
		c-3.174-3.274-8.109-4.113-12.184-2.073l-34.512,17.256c-5.166,2.582-7.26,8.864-4.678,14.03c1.832,3.665,5.525,5.784,9.363,5.783
		c1.57,0,3.168-0.355,4.668-1.107l27.658-13.83l8.623,8.892c2.275,32.544,29.461,58.33,62.574,58.33
		c0.023,0,0.049-0.002,0.072-0.002l-6.449,12.903c-30.629-1.63-60.043-15.014-87.525-39.851
		C39.043,170.238,28.218,155.992,22.994,148.499z M208.113,187.572c1.748,3.606,5.402,5.896,9.41,5.896H231.5
		c-20.883,16.296-42.793,26.184-65.426,29.547l8.801-17.601c12.24-5.695,22.359-15.213,28.785-27.025L208.113,187.572z
		 M190.332,148.499c0,23.066-18.766,41.831-41.83,41.831c-23.066,0-41.832-18.766-41.832-41.831
		c0-23.065,18.766-41.831,41.832-41.831C171.566,106.668,190.332,125.434,190.332,148.499z M245.154,181.762
		c-0.617-5.187-5.023-9.21-10.377-9.21h-10.703l-12.891-26.587c-0.303-7.595-1.957-14.846-4.736-21.519h11.076
		c5.775,0,10.457-4.683,10.457-10.458c0-5.775-4.682-10.458-10.457-10.458h-25.324c-11.309-10.99-26.721-17.778-43.697-17.778
		c-8.518,0-16.641,1.714-24.053,4.802l-13.154-11.957c12.176-3.933,24.594-5.916,37.207-5.916c32.924,0,64.518,13.465,93.9,40.02
		c15.557,14.06,26.381,28.306,31.605,35.799C269.093,155.547,259.234,168.553,245.154,181.762z"/>
	<circle cx="148.501" cy="148.499" r="13.072"/>
</g>
<g>
</g>
<g>
</g>
<g>
</g>
<g>
</g>
<g>
</g>
<g>
</g>
<g>
</g>
<g>
</g>
<g>
</g>
<g>
</g>
<g>
</g>
<g>
</g>
<g>
</g>
<g>
</g>
<g>
</g>
</svg>
