<?xml version="1.0" encoding="UTF-8"?>
<!-- Created with Inkscape (http://www.inkscape.org/) -->
<svg width="377.95" height="188.98" version="1.1" viewBox="0 0 377.95 188.98" xml:space="preserve" xmlns="http://www.w3.org/2000/svg" xmlns:cc="http://creativecommons.org/ns#" xmlns:dc="http://purl.org/dc/elements/1.1/" xmlns:rdf="http://www.w3.org/1999/02/22-rdf-syntax-ns#"><metadata><rdf:RDF><cc:Work rdf:about=""><dc:format>image/svg+xml</dc:format><dc:type rdf:resource="http://purl.org/dc/dcmitype/StillImage"/><dc:title/></cc:Work></rdf:RDF></metadata><defs><clipPath id="clipPath64"><path d="M 0,141.732 H 283.465 V 0 H 0 Z"/></clipPath><clipPath id="clipPath128"><path d="m66.373 27.222h148.25v8.054h-148.25z"/></clipPath><clipPath id="clipPath140"><path d="M 0,141.732 H 283.465 V 0 H 0 Z"/></clipPath><clipPath id="clipPath160"><path d="m66.373 27.222h148.25v8.054h-148.25z"/></clipPath><clipPath id="clipPath180"><path d="M 0,141.732 H 283.465 V 0 H 0 Z"/></clipPath><clipPath id="clipPath192"><path d="m66.373 27.222h148.25v8.054h-148.25z"/></clipPath><clipPath id="clipPath208"><path d="M 0,141.732 H 283.465 V 0 H 0 Z"/></clipPath><clipPath id="clipPath220"><path d="m66.373 27.222h148.25v8.054h-148.25z"/></clipPath><clipPath id="clipPath232"><path d="M 0,141.732 H 283.465 V 0 H 0 Z"/></clipPath><clipPath id="clipPath252"><path d="m66.373 27.222h148.25v8.054h-148.25z"/></clipPath><clipPath id="clipPath264"><path d="M 0,141.732 H 283.465 V 0 H 0 Z"/></clipPath><clipPath id="clipPath280"><path d="m66.373 27.222h148.25v8.054h-148.25z"/></clipPath><clipPath id="clipPath292"><path d="M 0,141.732 H 283.465 V 0 H 0 Z"/></clipPath><clipPath id="clipPath316"><path d="m66.373 27.222h148.25v8.054h-148.25z"/></clipPath></defs><g transform="matrix(1.3333 0 0 -1.3333 0 188.98)"><g clip-path="url(#clipPath64)"><g transform="translate(33.745 75.237)"><path d="M 0,0 C 0,0 30.376,5.687 53.033,24.353 56.422,17.301 62.725,5.244 54.464,-25.691 45,-16.03 11.923,-0.443 0,0" fill="#fef7d1"/></g><g transform="translate(246.87 75.237)"><path d="m0 0s-30.377 5.687-53.033 24.353c-3.389-7.052-9.693-19.109-1.432-50.044 9.465 9.661 42.541 25.248 54.465 25.691" fill="#fef7d1"/></g><g transform="translate(109.85 45.793)"><path d="m0 0c1.265 0 2.439 0.33 3.525 0.991 1.044 0.661 1.921 1.672 2.631 3.035l2.668-1.15c-0.963-1.909-2.202-3.337-3.72-4.284-1.551-0.987-3.252-1.481-5.104-1.481-1.297 0-2.542 0.249-3.733 0.746-1.15 0.498-2.166 1.188-3.047 2.069-0.882 0.882-1.572 1.897-2.069 3.048-0.498 1.192-0.747 2.435-0.747 3.733 0 1.297 0.249 2.546 0.747 3.745 0.497 1.143 1.187 2.154 2.069 3.035 0.881 0.881 1.897 1.572 3.047 2.069 1.191 0.497 2.436 0.747 3.733 0.747 1.852 0 3.553-0.495 5.104-1.482 1.518-0.947 2.757-2.374 3.72-4.283l-2.668-1.151c-0.71 1.371-1.587 2.375-2.631 3.011-1.086 0.678-2.26 1.016-3.525 1.016-1.853 0-3.436-0.653-4.749-1.959-1.306-1.313-1.958-2.895-1.958-4.748s0.652-3.435 1.958-4.749c1.313-1.305 2.896-1.958 4.749-1.958" fill="#322a5f"/></g><g transform="translate(125.44 57.248)"><path d="m0 0c-1.314-1.313-1.971-2.896-1.971-4.748 0-1.853 0.657-3.435 1.971-4.749 1.305-1.305 2.888-1.958 4.749-1.958 1.852 0 3.431 0.653 4.736 1.958 1.314 1.314 1.971 2.896 1.971 4.749 0 1.852-0.657 3.435-1.971 4.748-1.305 1.306-2.884 1.959-4.736 1.959-1.861 0-3.444-0.653-4.749-1.959m1.003-13.598c-1.142 0.498-2.153 1.188-3.035 2.069-0.881 0.882-1.571 1.892-2.068 3.036-0.506 1.199-0.759 2.447-0.759 3.745 0 1.297 0.253 2.541 0.759 3.732 0.497 1.151 1.187 2.167 2.068 3.048 0.882 0.881 1.893 1.567 3.035 2.056 1.191 0.507 2.44 0.76 3.746 0.76 1.297 0 2.541-0.253 3.732-0.76 1.143-0.489 2.155-1.175 3.036-2.056 0.889-0.881 1.579-1.897 2.068-3.048 0.506-1.191 0.759-2.435 0.759-3.732 0-1.298-0.253-2.546-0.759-3.745-0.489-1.144-1.179-2.154-2.068-3.036-0.881-0.881-1.893-1.571-3.036-2.069-1.191-0.497-2.435-0.746-3.732-0.746-1.306 0-2.555 0.249-3.746 0.746" fill="#322a5f"/></g><g transform="translate(161.72 52.989)"><path d="m0 0c0-1.633-0.252-3.043-0.759-4.234-0.489-1.151-1.175-2.167-2.056-3.048-0.889-0.881-1.905-1.567-3.047-2.057-1.193-0.506-2.441-0.759-3.745-0.759-1.298 0-2.542 0.253-3.734 0.759-1.15 0.49-2.166 1.176-3.048 2.057-0.881 0.881-1.566 1.897-2.055 3.048-0.507 1.191-0.759 2.435-0.759 3.732 0 1.305 0.252 2.554 0.759 3.745 0.489 1.144 1.174 2.159 2.055 3.048 0.882 0.881 1.898 1.566 3.048 2.056 1.192 0.507 2.436 0.759 3.734 0.759 2.063 0 3.936-0.604 5.617-1.811 1.623-1.176 2.844-2.926 3.66-5.251h-3.158c-0.629 1.322-1.474 2.33-2.533 3.023-1.094 0.703-2.29 1.052-3.586 1.052-1.829 0-3.387-0.643-4.676-1.933-1.29-1.297-1.934-2.86-1.934-4.688s0.644-3.386 1.934-4.675c1.289-1.29 2.847-1.934 4.676-1.934 1.493 0 2.827 0.448 4.002 1.346 1.15 0.881 1.872 1.807 2.166 2.779h-6.634v2.986z" fill="#322a5f"/></g><g transform="translate(173.69 49.379)"><path d="m0 0-2.203 5.446-2.203-5.446zm5.618-6.145h-3.134l-1.309 3.245h-6.756l-1.31-3.245h-3.132l7.82 19.363z" fill="#322a5f"/></g><g transform="translate(98.575 113.8)"><path d="m0 0c-1.885-3.921-4.463-7.504-7.339-10.81-1.413-1.688-3.025-3.176-4.595-4.722-0.788-0.769-1.662-1.435-2.497-2.152-0.852-0.692-1.666-1.444-2.57-2.066-1.783-1.281-3.513-2.664-5.416-3.763l-2.8-1.743c-0.929-0.591-1.919-1.066-2.876-1.604l-2.91-1.547c-0.975-0.507-1.989-0.923-2.982-1.388-1.998-0.905-3.981-1.851-6.039-2.601l-3.075-1.156c-1.022-0.395-2.048-0.772-3.097-1.083l-6.254-1.972c-4.243-1.032-8.439-2.252-12.744-2.952-8.539-1.739-17.22-2.573-25.881-2.967 8.486 1.859 16.961 3.445 25.273 5.666 4.18 1.009 8.281 2.271 12.394 3.47l6.088 2.032c1.023 0.316 2.02 0.698 3.011 1.096l2.985 1.162c2.02 0.704 3.953 1.6 5.907 2.455 0.97 0.44 1.966 0.832 2.916 1.311l2.851 1.437c0.946 0.485 1.93 0.909 2.847 1.446l2.771 1.581c1.879 1.013 3.614 2.237 5.426 3.36 0.918 0.547 1.74 1.219 2.607 1.837 0.848 0.64 1.736 1.236 2.566 1.902 1.642 1.351 3.33 2.667 4.85 4.166 3.146 2.891 6.031 6.092 8.583 9.605" fill="#322a5f"/></g><g transform="translate(80.54 110.38)"><path d="m0 0c2.53-1.923 4.547-4.48 6.281-7.168 0.9-1.339 1.602-2.781 2.338-4.217 0.4-0.707 0.669-1.464 0.965-2.213l0.885-2.253c0.528-1.521 0.94-3.081 1.376-4.637 0.373-1.568 0.614-3.161 0.926-4.746 0.066-0.398 0.166-0.793 0.203-1.193l0.096-1.203 0.193-2.407c0.058-0.803 0.142-1.606 0.176-2.409l-0.014-2.408-0.056-2.409c-0.031-0.801-4e-3 -1.608-0.12-2.401-0.176-1.591-0.331-3.185-0.528-4.773-0.148-1.596-0.512-3.152-0.836-4.714-0.316-1.563-0.662-3.119-1.021-4.668-0.884-3.056-1.871-6.08-2.901-9.068-1.248-2.92-2.483-5.832-3.861-8.666 0.641 3.111 1.424 6.144 2.195 9.171l1.864 9.153c0.202 1.539 0.417 3.072 0.662 4.599 0.234 1.527 0.508 3.049 0.565 4.592 0.114 1.537 0.27 3.067 0.404 4.6 0.131 1.532 0.049 3.068 0.09 4.6l0.057 2.3c-0.02 0.765-0.088 1.527-0.13 2.29l-0.142 2.29c-0.035 0.766-0.093 1.528-0.213 2.282-0.218 1.508-0.364 3.036-0.638 4.538-0.357 1.481-0.616 2.993-0.982 4.478-0.846 2.931-1.735 5.886-3.072 8.662-1.258 2.815-2.794 5.528-4.762 7.998" fill="#322a5f"/></g><g transform="translate(98.575 36.935)"><path d="m0 0c-2.552 3.514-5.437 6.714-8.583 9.605-1.52 1.499-3.208 2.815-4.85 4.166-0.83 0.666-1.718 1.262-2.566 1.902-0.867 0.618-1.689 1.29-2.607 1.838-1.812 1.123-3.547 2.346-5.426 3.358l-2.771 1.582c-0.917 0.536-1.901 0.96-2.847 1.446l-2.851 1.437c-0.95 0.479-1.946 0.871-2.916 1.311-1.954 0.854-3.887 1.751-5.907 2.455l-2.985 1.162c-0.991 0.398-1.988 0.779-3.011 1.096l-6.088 2.032c-4.113 1.199-8.214 2.461-12.394 3.469-8.312 2.222-16.787 3.808-25.273 5.667 8.661-0.394 17.342-1.228 25.881-2.967 4.305-0.7 8.501-1.92 12.744-2.952l6.254-1.972c1.049-0.311 2.075-0.688 3.097-1.083l3.075-1.156c2.058-0.75 4.041-1.696 6.039-2.601 0.993-0.466 2.007-0.881 2.982-1.388l2.91-1.547c0.957-0.539 1.947-1.013 2.876-1.604l2.8-1.743c1.903-1.1 3.633-2.482 5.416-3.763 0.904-0.622 1.718-1.373 2.57-2.066 0.835-0.717 1.709-1.383 2.497-2.152 1.57-1.546 3.182-3.034 4.595-4.721 2.876-3.307 5.454-6.89 7.339-10.811" fill="#322a5f"/></g><g transform="translate(90.635 85.138)"><path d="m0 0c-1.922 0-3.48-4.736-3.48-10.579 0-5.842 1.558-10.578 3.48-10.578" fill="#322a5f"/></g><g transform="translate(182.42 113.8)"><path d="m0 0c2.553-3.513 5.438-6.714 8.583-9.605 1.521-1.499 3.209-2.815 4.851-4.166 0.83-0.666 1.717-1.262 2.566-1.902 0.866-0.618 1.689-1.29 2.607-1.837 1.812-1.123 3.547-2.347 5.425-3.36l2.771-1.581c0.918-0.537 1.901-0.961 2.847-1.446l2.852-1.437c0.95-0.479 1.945-0.871 2.916-1.311 1.953-0.855 3.887-1.751 5.906-2.455l2.986-1.162c0.99-0.398 1.988-0.78 3.01-1.096l6.089-2.032c4.112-1.199 8.213-2.461 12.393-3.47 8.312-2.221 16.787-3.807 25.273-5.666-8.661 0.394-17.342 1.228-25.881 2.967-4.305 0.7-8.501 1.92-12.744 2.952l-6.254 1.972c-1.048 0.311-2.075 0.688-3.097 1.083l-3.075 1.156c-2.058 0.75-4.041 1.696-6.038 2.601-0.993 0.465-2.008 0.881-2.982 1.388l-2.91 1.547c-0.958 0.538-1.948 1.013-2.877 1.604l-2.8 1.743c-1.903 1.099-3.633 2.482-5.415 3.763-0.905 0.622-1.719 1.374-2.57 2.066-0.835 0.717-1.709 1.383-2.497 2.152-1.571 1.546-3.182 3.034-4.595 4.722-2.876 3.306-5.455 6.889-7.34 10.81" fill="#322a5f"/></g><g transform="translate(200.46 110.38)"><path d="m0 0c-1.968-2.47-3.504-5.183-4.762-7.998-1.338-2.776-2.226-5.731-3.073-8.662-0.364-1.485-0.625-2.997-0.981-4.478-0.274-1.502-0.419-3.03-0.637-4.538-0.121-0.754-0.179-1.516-0.214-2.282l-0.143-2.29c-0.041-0.763-0.109-1.525-0.129-2.29l0.057-2.3c0.041-1.532-0.041-3.068 0.089-4.6 0.135-1.533 0.29-3.063 0.404-4.6 0.058-1.543 0.331-3.065 0.567-4.592 0.244-1.527 0.459-3.06 0.661-4.599l1.864-9.153c0.771-3.027 1.555-6.06 2.195-9.171-1.377 2.834-2.613 5.746-3.861 8.666-1.03 2.988-2.016 6.012-2.901 9.068-0.359 1.549-0.705 3.105-1.021 4.668-0.325 1.562-0.688 3.118-0.837 4.714-0.196 1.588-0.35 3.182-0.527 4.773-0.116 0.793-0.089 1.6-0.12 2.401l-0.056 2.409-0.014 2.408c0.035 0.803 0.119 1.606 0.176 2.409l0.193 2.407 0.096 1.203c0.037 0.4 0.137 0.795 0.203 1.193 0.311 1.585 0.552 3.178 0.925 4.746 0.437 1.556 0.849 3.116 1.377 4.637l0.885 2.253c0.297 0.749 0.565 1.506 0.965 2.213 0.736 1.436 1.438 2.878 2.338 4.217 1.734 2.688 3.751 5.245 6.281 7.168" fill="#322a5f"/></g><g transform="translate(182.42 36.935)"><path d="m0 0c1.885 3.921 4.464 7.504 7.34 10.811 1.413 1.687 3.024 3.175 4.595 4.721 0.788 0.769 1.662 1.435 2.497 2.152 0.851 0.693 1.665 1.444 2.57 2.066 1.782 1.281 3.512 2.663 5.415 3.763l2.8 1.743c0.929 0.591 1.919 1.065 2.877 1.604l2.91 1.547c0.974 0.507 1.989 0.922 2.982 1.388 1.997 0.905 3.98 1.851 6.038 2.601l3.075 1.156c1.022 0.395 2.049 0.772 3.097 1.083l6.254 1.972c4.243 1.032 8.439 2.252 12.744 2.952 8.539 1.739 17.22 2.573 25.881 2.967-8.486-1.859-16.961-3.445-25.273-5.667-4.18-1.008-8.281-2.27-12.393-3.469l-6.089-2.032c-1.022-0.317-2.02-0.698-3.01-1.096l-2.986-1.162c-2.019-0.704-3.953-1.601-5.906-2.455-0.971-0.44-1.966-0.832-2.916-1.311l-2.852-1.437c-0.946-0.486-1.929-0.91-2.847-1.446l-2.771-1.582c-1.878-1.012-3.613-2.235-5.425-3.358-0.918-0.548-1.741-1.22-2.607-1.838-0.849-0.64-1.736-1.236-2.566-1.902-1.642-1.351-3.33-2.667-4.851-4.166-3.145-2.891-6.03-6.091-8.583-9.605" fill="#322a5f"/></g><g transform="translate(190.37 85.138)"><path d="m0 0c1.922 0 3.48-4.736 3.48-10.579 0-5.842-1.558-10.578-3.48-10.578" fill="#322a5f"/></g></g><g clip-path="url(#clipPath128)"><g transform="translate(69.593 28.019)"><path d="m0 0c0.481 0 0.927 0.127 1.337 0.381 0.398 0.248 0.706 0.578 0.922 0.991l0.623-0.268c-0.271-0.537-0.661-0.966-1.168-1.286-0.523-0.329-1.094-0.494-1.714-0.494-0.436 0-0.853 0.085-1.25 0.252-0.387 0.164-0.729 0.396-1.026 0.693-0.298 0.296-0.528 0.637-0.693 1.025-0.167 0.397-0.251 0.815-0.251 1.25s0.084 0.854 0.251 1.255c0.165 0.384 0.395 0.724 0.693 1.021 0.297 0.297 0.639 0.529 1.026 0.694 0.397 0.166 0.814 0.25 1.25 0.25 0.62 0 1.191-0.164 1.714-0.493 0.507-0.321 0.897-0.75 1.168-1.286l-0.623-0.268c-0.216 0.416-0.524 0.746-0.922 0.991-0.41 0.254-0.856 0.381-1.337 0.381-0.701 0-1.301-0.248-1.8-0.745-0.496-0.498-0.744-1.099-0.744-1.8s0.248-1.301 0.744-1.8c0.499-0.496 1.099-0.744 1.8-0.744" fill="#9181a3"/></g></g><g clip-path="url(#clipPath140)"><g transform="translate(73.289 33.658)"><path d="m0 0v-6.205h3.699v0.683h-3.016v2.095h2.432v0.683h-2.432v2.059h3.016v0.685z" fill="#9181a3"/></g><g transform="translate(77.962 27.453)"><path d="m0 0h0.683v4.6l4.454-4.735v6.34h-0.684v-4.617l-4.453 4.738z" fill="#9181a3"/></g><g transform="translate(83.904 33.658)"><path d="m0 0v-0.685h2.225v-5.52h0.683v5.52h2.198v0.685z" fill="#9181a3"/></g></g><g clip-path="url(#clipPath160)"><g transform="translate(93.078 29.556)"><path d="m0 0c0.346-0.228 0.62-0.525 0.822-0.892 0.205-0.375 0.307-0.777 0.307-1.207v-5e-3h-0.683v5e-3c0 0.504-0.179 0.937-0.537 1.298-0.36 0.362-0.795 0.541-1.303 0.541h-1.142v-1.844h-0.684v6.207h2.181c0.603 0 1.118-0.214 1.545-0.641s0.64-0.941 0.64-1.541c0-0.406-0.106-0.785-0.319-1.133-0.205-0.335-0.481-0.598-0.827-0.788m-2.536 3.418v-2.993h1.497c0.416 0 0.769 0.144 1.06 0.436 0.291 0.294 0.438 0.648 0.438 1.06 0 0.413-0.147 0.765-0.438 1.056-0.291 0.294-0.644 0.441-1.06 0.441z" fill="#9181a3"/></g><g transform="translate(97.029 27.596)"><path d="m0 0c-0.384 0.163-0.724 0.395-1.021 0.691-0.298 0.297-0.528 0.639-0.693 1.022-0.17 0.401-0.255 0.819-0.255 1.256 0 0.434 0.085 0.851 0.255 1.25 0.165 0.386 0.395 0.728 0.693 1.025 0.297 0.297 0.637 0.527 1.021 0.689 0.398 0.171 0.816 0.254 1.255 0.254 0.436 0 0.852-0.083 1.25-0.254 0.384-0.162 0.724-0.392 1.021-0.689 0.301-0.297 0.532-0.639 0.694-1.025 0.17-0.399 0.255-0.816 0.255-1.25 0-0.437-0.085-0.855-0.255-1.256-0.162-0.383-0.393-0.725-0.694-1.022-0.297-0.296-0.637-0.528-1.021-0.691-0.398-0.168-0.814-0.251-1.25-0.251-0.439 0-0.857 0.083-1.255 0.251m-0.545 4.769c-0.499-0.5-0.749-1.099-0.749-1.8 0-0.702 0.25-1.301 0.749-1.801 0.496-0.496 1.096-0.745 1.8-0.745 0.701 0 1.299 0.249 1.796 0.745 0.498 0.5 0.748 1.099 0.748 1.801 0 0.701-0.25 1.3-0.748 1.8-0.497 0.495-1.095 0.744-1.796 0.744-0.704 0-1.304-0.249-1.8-0.744" fill="#9181a3"/></g><g transform="translate(104.2 27.452)"><path d="m0 0v6.206h2.082c0.421 0 0.823-0.083 1.207-0.247 0.369-0.155 0.698-0.376 0.986-0.661 0.286-0.289 0.507-0.618 0.662-0.987 0.165-0.384 0.248-0.787 0.248-1.207 0-0.419-0.083-0.822-0.248-1.208-0.155-0.37-0.377-0.697-0.666-0.983-0.285-0.288-0.613-0.511-0.982-0.666-0.386-0.164-0.789-0.247-1.207-0.247zm2.086 0.684c0.664 3e-3 1.232 0.24 1.705 0.71 0.473 0.473 0.709 1.043 0.709 1.71 0 0.666-0.236 1.235-0.709 1.708-0.473 0.474-1.041 0.71-1.705 0.71h-1.44v-4.838z" fill="#9181a3"/></g></g><g clip-path="url(#clipPath180)"><g transform="translate(110.37 33.658)"><path d="m0 0v-6.205h3.699v0.683h-3.016v2.095h2.432v0.683h-2.432v2.059h3.016v0.685z" fill="#9181a3"/></g></g><g clip-path="url(#clipPath192)"><g transform="translate(118.47 27.596)"><path d="m0 0c-0.384 0.163-0.724 0.395-1.021 0.691-0.298 0.297-0.528 0.639-0.693 1.022-0.17 0.401-0.255 0.819-0.255 1.256 0 0.434 0.085 0.851 0.255 1.25 0.165 0.386 0.395 0.728 0.693 1.025 0.297 0.297 0.637 0.527 1.021 0.689 0.398 0.171 0.816 0.254 1.255 0.254 0.436 0 0.852-0.083 1.25-0.254 0.384-0.162 0.724-0.392 1.021-0.689 0.301-0.297 0.532-0.639 0.693-1.025 0.171-0.399 0.256-0.816 0.256-1.25 0-0.437-0.085-0.855-0.256-1.256-0.161-0.383-0.392-0.725-0.693-1.022-0.297-0.296-0.637-0.528-1.021-0.691-0.398-0.168-0.814-0.251-1.25-0.251-0.439 0-0.857 0.083-1.255 0.251m-0.545 4.769c-0.499-0.5-0.749-1.099-0.749-1.8 0-0.702 0.25-1.301 0.749-1.801 0.496-0.496 1.096-0.745 1.8-0.745 0.701 0 1.299 0.249 1.795 0.745 0.499 0.5 0.749 1.099 0.749 1.801 0 0.701-0.25 1.3-0.749 1.8-0.496 0.495-1.094 0.744-1.795 0.744-0.704 0-1.304-0.249-1.8-0.744" fill="#9181a3"/></g><g transform="translate(126.23 33.658)"><path d="m0 0c0.6 0 1.113-0.214 1.541-0.641 0.427-0.423 0.64-0.937 0.64-1.541 0-0.599-0.213-1.113-0.64-1.54-0.428-0.426-0.941-0.64-1.541-0.64h-1.501v-1.844h-0.685v6.206zm0-3.678c0.412 0 0.765 0.145 1.056 0.437 0.294 0.294 0.442 0.646 0.442 1.059s-0.148 0.766-0.442 1.061c-0.291 0.291-0.644 0.437-1.056 0.437h-1.501v-2.994z" fill="#9181a3"/></g></g><g clip-path="url(#clipPath208)"><g transform="translate(128.96 33.658)"><path d="m0 0v-0.685h2.224v-5.52h0.684v5.52h2.198v0.685z" fill="#9181a3"/></g></g><g clip-path="url(#clipPath220)"><g transform="translate(136.1 27.596)"><path d="m0 0c-0.384 0.163-0.724 0.395-1.021 0.691-0.298 0.297-0.528 0.639-0.693 1.022-0.169 0.401-0.255 0.819-0.255 1.256 0 0.434 0.086 0.851 0.255 1.25 0.165 0.386 0.395 0.728 0.693 1.025 0.297 0.297 0.637 0.527 1.021 0.689 0.398 0.171 0.816 0.254 1.255 0.254 0.436 0 0.852-0.083 1.25-0.254 0.384-0.162 0.724-0.392 1.021-0.689 0.301-0.297 0.532-0.639 0.693-1.025 0.171-0.399 0.256-0.816 0.256-1.25 0-0.437-0.085-0.855-0.256-1.256-0.161-0.383-0.392-0.725-0.693-1.022-0.297-0.296-0.637-0.528-1.021-0.691-0.398-0.168-0.814-0.251-1.25-0.251-0.439 0-0.857 0.083-1.255 0.251m-0.545 4.769c-0.499-0.5-0.749-1.099-0.749-1.8 0-0.702 0.25-1.301 0.749-1.801 0.496-0.496 1.096-0.745 1.8-0.745 0.701 0 1.299 0.249 1.795 0.745 0.499 0.5 0.749 1.099 0.749 1.801 0 0.701-0.25 1.3-0.749 1.8-0.496 0.495-1.094 0.744-1.795 0.744-0.704 0-1.304-0.249-1.8-0.744" fill="#9181a3"/></g></g><g clip-path="url(#clipPath232)"><g transform="translate(141.23 27.453)"><path d="m0 0h0.706l0.981 4.084 1.731-4.313 1.758 4.322 0.987-4.093h0.705l-1.524 6.33-1.921-4.726-1.895 4.735z" fill="#9181a3"/></g><g transform="translate(149.18 33.658)"><path d="m0 0v-6.205h3.7v0.683h-3.016v2.095h2.431v0.683h-2.431v2.059h3.016v0.685z" fill="#9181a3"/></g><g transform="translate(153.44 33.658)"><path d="m0 0v-0.685h2.225v-5.52h0.683v5.52h2.198v0.685z" fill="#9181a3"/></g></g><g clip-path="url(#clipPath252)"><g transform="translate(162.62 29.556)"><path d="m0 0c0.346-0.228 0.62-0.525 0.822-0.892 0.204-0.375 0.307-0.777 0.307-1.207v-5e-3h-0.684v5e-3c0 0.504-0.178 0.937-0.536 1.298-0.36 0.362-0.795 0.541-1.303 0.541h-1.142v-1.844h-0.684v6.207h2.181c0.602 0 1.117-0.214 1.545-0.641 0.427-0.427 0.64-0.941 0.64-1.541 0-0.406-0.107-0.785-0.32-1.133-0.204-0.335-0.48-0.598-0.826-0.788m-2.536 3.418v-2.993h1.497c0.416 0 0.769 0.144 1.06 0.436 0.291 0.294 0.438 0.648 0.438 1.06 0 0.413-0.147 0.765-0.438 1.056-0.291 0.294-0.644 0.441-1.06 0.441z" fill="#9181a3"/></g></g><g clip-path="url(#clipPath264)"><g transform="translate(165.55 35.276)"><path d="m0 0-0.71-1.021 0.546-0.377 0.71 1.017zm-0.684-7.823h0.684v6.205h-0.684z" fill="#9181a3"/></g><g transform="translate(166.39 27.453)"><path d="m0 0h0.735l0.463 1.146h2.622l0.464-1.146h0.736l-2.511 6.21zm2.509 4.388 1.035-2.563h-2.068z" fill="#9181a3"/></g></g><g clip-path="url(#clipPath280)"><g transform="translate(180.14 30.563)"><path d="m0 0c0-0.438-0.085-0.856-0.256-1.255-0.161-0.387-0.39-0.728-0.687-1.025-0.3-0.297-0.643-0.527-1.027-0.689-0.397-0.17-0.816-0.255-1.255-0.255-0.434 0-0.852 0.085-1.25 0.255-0.386 0.162-0.728 0.392-1.025 0.689-0.298 0.297-0.526 0.638-0.688 1.025-0.17 0.399-0.256 0.816-0.256 1.251 0 0.439 0.086 0.857 0.256 1.255 0.162 0.384 0.39 0.726 0.688 1.025 0.297 0.297 0.639 0.527 1.025 0.689 0.398 0.17 0.816 0.255 1.25 0.255 0.694 0 1.321-0.201 1.883-0.606 0.549-0.395 0.933-0.91 1.155-1.545h-0.765c-0.205 0.433-0.51 0.78-0.913 1.038-0.413 0.269-0.865 0.403-1.36 0.403-0.692 0-1.283-0.244-1.774-0.736-0.49-0.493-0.735-1.086-0.735-1.778s0.245-1.283 0.735-1.774c0.491-0.492 1.082-0.736 1.774-0.736 0.567 0 1.073 0.17 1.52 0.51 0.438 0.336 0.735 0.768 0.892 1.294h-2.403v0.71z" fill="#9181a3"/></g></g><g clip-path="url(#clipPath292)"><g transform="translate(180.83 27.453)"><path d="m0 0h0.735l0.463 1.146h2.622l0.464-1.146h0.736l-2.511 6.21zm2.509 4.388 1.035-2.563h-2.068z" fill="#9181a3"/></g><g transform="translate(186.68 33.658)"><path d="m0 0v-6.205h3.873v0.683h-3.19v5.522z" fill="#9181a3"/></g><g transform="translate(191.53 33.658)"><path d="m0 0v-6.205h3.873v0.683h-3.189v5.522z" fill="#9181a3"/></g><g transform="translate(196.37 33.658)"><path d="m0 0v-6.205h3.7v0.683h-3.016v2.095h2.431v0.683h-2.431v2.059h3.016v0.685z" fill="#9181a3"/></g></g><g clip-path="url(#clipPath316)"><g transform="translate(207.22 30.563)"><path d="m0 0c0-0.438-0.085-0.856-0.255-1.255-0.162-0.387-0.391-0.728-0.688-1.025-0.3-0.297-0.643-0.527-1.027-0.689-0.397-0.17-0.815-0.255-1.255-0.255-0.434 0-0.852 0.085-1.25 0.255-0.386 0.162-0.728 0.392-1.025 0.689s-0.526 0.638-0.687 1.025c-0.172 0.399-0.257 0.816-0.257 1.251 0 0.439 0.085 0.857 0.257 1.255 0.161 0.384 0.39 0.726 0.687 1.025 0.297 0.297 0.639 0.527 1.025 0.689 0.398 0.17 0.816 0.255 1.25 0.255 0.694 0 1.322-0.201 1.883-0.606 0.548-0.395 0.934-0.91 1.155-1.545h-0.765c-0.205 0.433-0.509 0.78-0.912 1.038-0.413 0.269-0.866 0.403-1.361 0.403-0.691 0-1.283-0.244-1.773-0.736-0.49-0.493-0.736-1.086-0.736-1.778s0.246-1.283 0.736-1.774c0.49-0.492 1.082-0.736 1.773-0.736 0.566 0 1.073 0.17 1.52 0.51 0.438 0.336 0.735 0.768 0.892 1.294h-2.403v0.71z" fill="#9181a3"/></g><g transform="translate(210.15 27.596)"><path d="m0 0c-0.384 0.163-0.724 0.395-1.021 0.691-0.296 0.297-0.528 0.639-0.693 1.022-0.17 0.401-0.255 0.819-0.255 1.256 0 0.434 0.085 0.851 0.255 1.25 0.165 0.386 0.397 0.728 0.693 1.025 0.297 0.297 0.637 0.527 1.021 0.689 0.398 0.171 0.816 0.254 1.255 0.254 0.435 0 0.852-0.083 1.251-0.254 0.384-0.162 0.723-0.392 1.02-0.689 0.301-0.297 0.532-0.639 0.694-1.025 0.17-0.399 0.255-0.816 0.255-1.25 0-0.437-0.085-0.855-0.255-1.256-0.162-0.383-0.393-0.725-0.694-1.022-0.297-0.296-0.636-0.528-1.02-0.691-0.399-0.168-0.816-0.251-1.251-0.251-0.439 0-0.857 0.083-1.255 0.251m-0.545 4.769c-0.5-0.5-0.749-1.099-0.749-1.8 0-0.702 0.249-1.301 0.749-1.801 0.496-0.496 1.097-0.745 1.8-0.745 0.701 0 1.301 0.249 1.796 0.745 0.5 0.5 0.749 1.099 0.749 1.801 0 0.701-0.249 1.3-0.749 1.8-0.495 0.495-1.095 0.744-1.796 0.744-0.703 0-1.304-0.249-1.8-0.744" fill="#9181a3"/></g></g></g></svg>
