<?xml version="1.0"?>
<svg xmlns="http://www.w3.org/2000/svg" xmlns:xlink="http://www.w3.org/1999/xlink" version="1.1" id="Capa_1" x="0px" y="0px" viewBox="0 0 512 512" style="enable-background:new 0 0 512 512;" xml:space="preserve" width="512px" height="512px" class=""><g><g>
	<g>
		<path d="M316.618,60.618c-107.733,0-195.382,87.648-195.382,195.382s87.648,195.382,195.382,195.382S512,363.733,512,256    S424.352,60.618,316.618,60.618z M160.303,309.838c-5.831-16.885-9.008-34.996-9.008-53.838s3.176-36.953,9.008-53.838    c8.493,16.578,13.035,35.062,13.035,53.838S168.796,293.26,160.303,309.838z M175.645,342.271    c17.953-25.067,27.752-55.356,27.752-86.271s-9.799-61.205-27.752-86.271c6.305-10.266,13.701-19.793,22.023-28.421    c26.727,32.282,41.299,72.468,41.299,114.692s-14.571,82.41-41.299,114.692C189.346,362.064,181.95,352.538,175.645,342.271z     M316.618,421.323c-35.862,0-69.09-11.483-96.211-30.958c31.459-37.75,48.618-84.853,48.618-134.364    s-17.159-96.614-48.618-134.364c27.121-19.475,60.349-30.958,96.211-30.958c91.159,0,165.323,74.164,165.323,165.323    S407.777,421.323,316.618,421.323z" data-original="#000000" class="active-path" data-old_color="#342a5f" fill="#342a5f"/>
	</g>
</g><g>
	<g>
		<path d="M91.178,256c0-55.307,13.536-110.225,39.145-158.818c5.515-10.464,3.05-23.069-5.994-30.652    c-9.047-7.585-21.892-7.812-31.234-0.556c-28.329,22-51.768,50.535-67.778,82.517C8.518,182.049,0,218.219,0,256    c0,37.781,8.518,73.951,25.317,107.508c16.01,31.983,39.449,60.517,67.778,82.517c4.549,3.533,9.926,5.291,15.293,5.291    c5.657,0,11.299-1.955,15.941-5.847c9.044-7.583,11.508-20.186,5.993-30.652C104.715,366.225,91.178,311.307,91.178,256z     M30.059,256c0-56.996,22.511-110.311,62.502-149.687C71.935,153.2,61.119,204.451,61.119,256s10.815,102.8,31.441,149.687    C52.57,366.311,30.059,312.996,30.059,256z" data-original="#000000" class="active-path" data-old_color="#342a5f" fill="#342a5f"/>
	</g>
</g></g> </svg>
