<?xml version="1.0" encoding="iso-8859-1"?>
<!-- Generator: Adobe Illustrator 19.0.0, SVG Export Plug-In . SVG Version: 6.00 Build 0)  -->
<svg version="1.1" id="Capa_1" xmlns="http://www.w3.org/2000/svg" xmlns:xlink="http://www.w3.org/1999/xlink" x="0px" y="0px"
	 viewBox="0 0 512 512" style="enable-background:new 0 0 512 512;" xml:space="preserve">
<path style="fill:#A5E9FF;" d="M108.389,451.316c-5.365,0-10.744-1.758-15.293-5.291c-28.329-22-51.768-50.534-67.778-82.517
	C8.518,329.951,0,293.781,0,256s8.518-73.951,25.317-107.508c16.01-31.983,39.449-60.517,67.778-82.517
	c9.342-7.256,22.187-7.03,31.234,0.556c9.044,7.583,11.508,20.187,5.994,30.652C104.715,145.775,91.178,200.693,91.178,256
	s13.536,110.225,39.144,158.818c5.516,10.464,3.051,23.069-5.993,30.652C119.688,449.362,114.045,451.316,108.389,451.316z"/>
<path style="fill:#F2F2F4;" d="M316.618,451.382c-107.733,0-195.382-87.648-195.382-195.382S208.885,60.618,316.618,60.618
	S512,148.267,512,256S424.352,451.382,316.618,451.382z"/>
<path style="fill:#DFDFE1;" d="M316.618,60.618v390.763C424.352,451.382,512,363.733,512,256S424.352,60.618,316.618,60.618z"/>
<path style="fill:#00C3FF;" d="M176.845,119.632c-14.847,15.215-27.244,32.828-36.532,52.208
	c-12.222,25.501-19.076,54.045-19.076,84.16s6.854,58.66,19.076,84.16c9.288,19.38,21.685,36.993,36.532,52.208
	c34.384-35.234,55.609-83.366,55.609-136.368S211.23,154.865,176.845,119.632z"/>
<path style="fill:#56535A;" d="M140.313,171.84c-12.222,25.501-19.076,54.045-19.076,84.16s6.854,58.66,19.076,84.16
	c18.754-22.963,30.02-52.269,30.02-84.16S159.067,194.802,140.313,171.84z"/>
<g>
</g>
<g>
</g>
<g>
</g>
<g>
</g>
<g>
</g>
<g>
</g>
<g>
</g>
<g>
</g>
<g>
</g>
<g>
</g>
<g>
</g>
<g>
</g>
<g>
</g>
<g>
</g>
<g>
</g>
</svg>
