<!-- Generated by IcoMoon.io -->
<svg version="1.1" xmlns="http://www.w3.org/2000/svg" width="2048" height="1024" viewBox="0 0 2048 1024">
<title></title>
<g id="icomoon-ignore">
</g>
<path fill="#322a5f" d="M799.527 288.684c-9.808 20.395-23.213 39.029-38.173 56.225-7.351 8.784-15.731 16.519-23.903 24.558-4.098 4-8.644 7.462-12.983 11.192-4.435 3.6-8.663 7.509-13.366 10.746-9.275 6.662-18.274 13.857-28.173 19.574l-14.561 9.063c-4.835 3.074-9.983 5.543-14.957 8.341l-15.132 8.046c-5.070 2.638-10.345 4.802-15.506 7.218-10.39 4.71-20.705 9.63-31.41 13.532l-15.995 6.012c-5.313 2.057-10.656 4.013-16.106 5.635l-32.525 10.258c-22.070 5.365-43.896 11.711-66.287 15.357-44.416 9.044-89.567 13.382-134.614 15.432 44.141-9.668 88.221-17.919 131.453-29.473 21.741-5.248 43.072-11.808 64.464-18.051l31.667-10.568c5.32-1.641 10.508-3.634 15.657-5.701l15.529-6.042c10.508-3.663 20.556-8.322 30.726-12.769 5.044-2.288 10.228-4.329 15.166-6.818l14.832-7.475c4.92-2.522 10.036-4.73 14.807-7.52l14.41-8.224c9.775-5.267 18.8-11.633 28.226-17.48 4.775-2.843 9.052-6.337 13.557-9.558 4.41-3.331 9.033-6.432 13.347-9.892 8.538-7.029 17.321-13.873 25.228-21.67 16.361-15.035 31.371-31.686 44.646-49.96z"></path>
<path fill="#322a5f" d="M705.724 306.461c13.157 10.004 23.654 23.304 32.673 37.282 4.684 6.962 8.334 14.462 12.158 21.929 2.083 3.679 3.482 7.612 5.018 11.508l4.605 11.718c2.745 7.909 4.885 16.028 7.159 24.12 1.936 8.159 3.191 16.44 4.813 24.683 0.341 2.069 0.861 4.125 1.059 6.208l0.5 6.262 1.005 12.519c0.302 4.179 0.736 8.356 0.911 12.533l-0.072 12.527-0.286 12.533c-0.161 4.163-0.019 8.359-0.624 12.483-0.911 8.277-1.72 16.565-2.745 24.828-0.767 8.303-2.663 16.395-4.348 24.52-1.641 8.134-3.441 16.224-5.31 24.278-4.598 15.895-9.734 31.626-15.086 47.169-6.489 15.185-12.912 30.333-20.080 45.071 3.338-16.181 7.409-31.956 11.416-47.698l9.695-47.609c1.051-8.008 2.167-15.981 3.441-23.923 1.214-7.94 2.639-15.856 2.938-23.883 0.59-7.994 1.407-15.956 2.102-23.928 0.684-7.967 0.257-15.956 0.465-23.928l0.295-11.961c-0.105-3.981-0.461-7.94-0.677-11.908l-0.736-11.908c-0.185-3.988-0.486-7.948-1.111-11.869-1.136-7.842-1.891-15.79-3.316-23.604-1.86-7.706-3.207-15.567-5.11-23.292-4.401-15.245-9.025-30.616-15.981-45.050-6.541-14.64-14.532-28.752-24.77-41.597z"></path>
<path fill="#322a5f" d="M799.527 688.483c-13.275-18.28-28.277-34.925-44.646-49.96-7.909-7.797-16.681-14.64-25.228-21.67-4.315-3.463-8.934-6.562-13.347-9.892-4.51-3.213-8.784-6.712-13.557-9.559-9.427-5.839-18.452-12.206-28.226-17.465l-14.41-8.232c-4.768-2.788-9.883-4.991-14.807-7.52l-14.832-7.475c-4.939-2.488-10.122-4.534-15.166-6.818-10.161-4.439-20.217-9.109-30.726-12.769l-15.529-6.042c-5.157-2.069-10.338-4.053-15.657-5.701l-31.667-10.568c-21.394-6.237-42.722-12.802-64.464-18.043-43.233-11.558-87.312-19.805-131.453-29.477 45.046 2.050 90.201 6.387 134.614 15.432 22.392 3.638 44.22 9.983 66.287 15.357l32.525 10.258c5.46 1.615 10.792 3.581 16.106 5.635l15.995 6.012c10.708 3.902 21.019 8.821 31.41 13.532 5.16 2.424 10.436 4.585 15.506 7.218l15.132 8.046c4.979 2.805 10.13 5.267 14.957 8.341l14.561 9.063c9.899 5.72 18.898 12.907 28.173 19.574 4.703 3.238 8.934 7.139 13.366 10.746 4.341 3.732 8.884 7.192 12.983 11.192 8.163 8.039 16.554 15.781 23.903 24.553 14.957 17.204 28.37 35.838 38.173 56.232z"></path>
<path fill="#322a5f" d="M758.228 437.767c-9.997 0-18.104 24.629-18.104 55.022 0 30.385 8.106 55.017 18.104 55.017z"></path>
<path fill="#322a5f" d="M1235.657 288.684c13.282 18.274 28.283 34.925 44.646 49.96 7.909 7.797 16.69 14.64 25.228 21.67 4.315 3.463 8.934 6.562 13.347 9.892 4.507 3.213 8.784 6.712 13.557 9.558 9.427 5.839 18.452 12.208 28.218 17.48l14.41 8.224c4.775 2.791 9.883 4.998 14.807 7.52l14.832 7.475c4.939 2.488 10.114 4.534 15.166 6.818 10.158 4.446 20.217 9.109 30.721 12.769l15.531 6.042c5.15 2.069 10.338 4.060 15.656 5.701l31.674 10.568c21.386 6.237 42.722 12.802 64.463 18.051 43.233 11.556 87.312 19.805 131.453 29.473-45.046-2.050-90.201-6.387-134.614-15.432-22.392-3.638-44.22-9.983-66.287-15.357l-32.525-10.258c-5.453-1.615-10.792-3.581-16.106-5.635l-15.995-6.012c-10.708-3.902-21.019-8.821-31.401-13.532-5.16-2.417-10.444-4.585-15.506-7.218l-15.132-8.046c-4.985-2.798-10.133-5.267-14.962-8.341l-14.561-9.063c-9.899-5.713-18.898-12.907-28.166-19.574-4.71-3.238-8.939-7.146-13.366-10.746-4.341-3.732-8.884-7.192-12.983-11.192-8.171-8.039-16.554-15.781-23.903-24.558-14.957-17.197-28.377-35.83-38.173-56.225z"></path>
<path fill="#322a5f" d="M1329.458 306.461c-10.233 12.849-18.229 26.957-24.77 41.597-6.962 14.436-11.582 29.807-15.981 45.050-1.891 7.725-3.252 15.586-5.105 23.292-1.426 7.809-2.181 15.756-3.313 23.604-0.631 3.921-0.934 7.884-1.111 11.869l-0.741 11.908c-0.211 3.967-0.564 7.934-0.669 11.908l0.295 11.961c0.211 7.967-0.211 15.956 0.461 23.928 0.703 7.975 1.511 15.931 2.102 23.928 0.302 8.027 1.72 15.941 2.95 23.883 1.267 7.94 2.388 15.915 3.438 23.923l9.695 47.609c4.013 15.745 8.084 31.523 11.416 47.698-7.159-14.738-13.59-29.886-20.080-45.071-5.36-15.54-10.483-31.273-15.086-47.169-1.864-8.059-3.664-16.153-5.31-24.278-1.686-8.125-3.581-16.217-4.356-24.52-1.017-8.259-1.819-16.554-2.738-24.828-0.605-4.125-0.461-8.322-0.624-12.483l-0.286-12.533-0.072-12.527c0.185-4.179 0.617-8.356 0.911-12.533l1.005-12.519 0.5-6.262c0.189-2.083 0.711-4.135 1.059-6.208 1.615-8.242 2.87-16.531 4.81-24.683 2.272-8.092 4.413-16.206 7.159-24.12l4.605-11.718c1.543-3.894 2.938-7.834 5.018-11.508 3.831-7.468 7.482-14.969 12.158-21.929 9.018-13.982 19.506-27.277 32.673-37.282z"></path>
<path fill="#322a5f" d="M1235.657 688.483c9.808-20.395 23.22-39.029 38.173-56.232 7.351-8.776 15.731-16.512 23.903-24.553 4.098-4 8.644-7.462 12.983-11.192 4.427-3.607 8.659-7.509 13.366-10.746 9.268-6.662 18.267-13.854 28.166-19.574l14.561-9.063c4.835-3.074 9.983-5.535 14.962-8.341l15.132-8.046c5.063-2.638 10.345-4.794 15.506-7.218 10.383-4.71 20.705-9.63 31.401-13.532l15.995-6.012c5.313-2.057 10.658-4.013 16.106-5.635l32.525-10.258c22.070-5.365 43.896-11.711 66.287-15.357 44.416-9.044 89.567-13.382 134.614-15.432-44.141 9.668-88.221 17.919-131.453 29.477-21.741 5.241-43.072 11.808-64.463 18.043l-31.674 10.568c-5.313 1.648-10.508 3.634-15.656 5.701l-15.531 6.042c-10.504 3.663-20.556 8.33-30.721 12.769-5.051 2.288-10.228 4.329-15.166 6.818l-14.832 7.475c-4.92 2.529-10.033 4.735-14.807 7.52l-14.41 8.232c-9.766 5.26-18.793 11.627-28.218 17.465-4.775 2.851-9.059 6.344-13.557 9.559-4.413 3.331-9.033 6.432-13.347 9.892-8.538 7.029-17.321 13.873-25.228 21.67-16.356 15.035-31.364 31.677-44.646 49.96z"></path>
<path fill="#322a5f" d="M1276.955 437.767c9.997 0 18.104 24.629 18.104 55.022 0 30.385-8.106 55.017-18.104 55.017z"></path>
</svg>
