<?xml version="1.0" encoding="UTF-8" standalone="no"?>
<!-- Created with Inkscape (http://www.inkscape.org/) -->

<svg
   xmlns:dc="http://purl.org/dc/elements/1.1/"
   xmlns:cc="http://creativecommons.org/ns#"
   xmlns:rdf="http://www.w3.org/1999/02/22-rdf-syntax-ns#"
   xmlns:svg="http://www.w3.org/2000/svg"
   xmlns="http://www.w3.org/2000/svg"
   xmlns:sodipodi="http://sodipodi.sourceforge.net/DTD/sodipodi-0.dtd"
   xmlns:inkscape="http://www.inkscape.org/namespaces/inkscape"
   version="1.1"
   id="svg48"
   xml:space="preserve"
   width="377.95334"
   height="188.976"
   viewBox="0 0 377.95334 188.976"
   sodipodi:docname="logo.svg"
   inkscape:version="0.92.3 (2405546, 2018-03-11)"><metadata
     id="metadata54"><rdf:RDF><cc:Work
         rdf:about=""><dc:format>image/svg+xml</dc:format><dc:type
           rdf:resource="http://purl.org/dc/dcmitype/StillImage" /><dc:title></dc:title></cc:Work></rdf:RDF></metadata><defs
     id="defs52"><clipPath
       clipPathUnits="userSpaceOnUse"
       id="clipPath64"><path
         d="M 0,141.732 H 283.465 V 0 H 0 Z"
         id="path62"
         inkscape:connector-curvature="0" /></clipPath><clipPath
       clipPathUnits="userSpaceOnUse"
       id="clipPath128"><path
         d="m 66.373,27.222 h 148.253 v 8.054 H 66.373 Z"
         id="path126"
         inkscape:connector-curvature="0" /></clipPath><clipPath
       clipPathUnits="userSpaceOnUse"
       id="clipPath140"><path
         d="M 0,141.732 H 283.465 V 0 H 0 Z"
         id="path138"
         inkscape:connector-curvature="0" /></clipPath><clipPath
       clipPathUnits="userSpaceOnUse"
       id="clipPath160"><path
         d="m 66.373,27.222 h 148.253 v 8.054 H 66.373 Z"
         id="path158"
         inkscape:connector-curvature="0" /></clipPath><clipPath
       clipPathUnits="userSpaceOnUse"
       id="clipPath180"><path
         d="M 0,141.732 H 283.465 V 0 H 0 Z"
         id="path178"
         inkscape:connector-curvature="0" /></clipPath><clipPath
       clipPathUnits="userSpaceOnUse"
       id="clipPath192"><path
         d="m 66.373,27.222 h 148.253 v 8.054 H 66.373 Z"
         id="path190"
         inkscape:connector-curvature="0" /></clipPath><clipPath
       clipPathUnits="userSpaceOnUse"
       id="clipPath208"><path
         d="M 0,141.732 H 283.465 V 0 H 0 Z"
         id="path206"
         inkscape:connector-curvature="0" /></clipPath><clipPath
       clipPathUnits="userSpaceOnUse"
       id="clipPath220"><path
         d="m 66.373,27.222 h 148.253 v 8.054 H 66.373 Z"
         id="path218"
         inkscape:connector-curvature="0" /></clipPath><clipPath
       clipPathUnits="userSpaceOnUse"
       id="clipPath232"><path
         d="M 0,141.732 H 283.465 V 0 H 0 Z"
         id="path230"
         inkscape:connector-curvature="0" /></clipPath><clipPath
       clipPathUnits="userSpaceOnUse"
       id="clipPath252"><path
         d="m 66.373,27.222 h 148.253 v 8.054 H 66.373 Z"
         id="path250"
         inkscape:connector-curvature="0" /></clipPath><clipPath
       clipPathUnits="userSpaceOnUse"
       id="clipPath264"><path
         d="M 0,141.732 H 283.465 V 0 H 0 Z"
         id="path262"
         inkscape:connector-curvature="0" /></clipPath><clipPath
       clipPathUnits="userSpaceOnUse"
       id="clipPath280"><path
         d="m 66.373,27.222 h 148.253 v 8.054 H 66.373 Z"
         id="path278"
         inkscape:connector-curvature="0" /></clipPath><clipPath
       clipPathUnits="userSpaceOnUse"
       id="clipPath292"><path
         d="M 0,141.732 H 283.465 V 0 H 0 Z"
         id="path290"
         inkscape:connector-curvature="0" /></clipPath><clipPath
       clipPathUnits="userSpaceOnUse"
       id="clipPath316"><path
         d="m 66.373,27.222 h 148.253 v 8.054 H 66.373 Z"
         id="path314"
         inkscape:connector-curvature="0" /></clipPath></defs><sodipodi:namedview
     pagecolor="#ffffff"
     bordercolor="#666666"
     borderopacity="1"
     objecttolerance="10"
     gridtolerance="10"
     guidetolerance="10"
     inkscape:pageopacity="0"
     inkscape:pageshadow="2"
     inkscape:window-width="1299"
     inkscape:window-height="713"
     id="namedview50"
     showgrid="false"
     inkscape:zoom="2.8151723"
     inkscape:cx="188.97667"
     inkscape:cy="94.487999"
     inkscape:window-x="67"
     inkscape:window-y="27"
     inkscape:window-maximized="1"
     inkscape:current-layer="g56" /><g
     id="g56"
     inkscape:groupmode="layer"
     inkscape:label="COGA Logo CMYK Original"
     transform="matrix(1.3333333,0,0,-1.3333333,0,188.976)"><g
       id="g58"><g
         id="g60"
         clip-path="url(#clipPath64)"><g
           id="g66"
           transform="translate(33.7446,75.2367)"><path
             d="M 0,0 C 0,0 30.376,5.687 53.033,24.353 56.422,17.301 62.725,5.244 54.464,-25.691 45,-16.03 11.923,-0.443 0,0"
             style="fill:#fef7d1;fill-opacity:1;fill-rule:nonzero;stroke:none"
             id="path68"
             inkscape:connector-curvature="0" /></g><g
           id="g70"
           transform="translate(246.874,75.2367)"><path
             d="M 0,0 C 0,0 -30.377,5.687 -53.033,24.353 -56.422,17.301 -62.726,5.244 -54.465,-25.691 -45,-16.03 -11.924,-0.443 0,0"
             style="fill:#fef7d1;fill-opacity:1;fill-rule:nonzero;stroke:none"
             id="path72"
             inkscape:connector-curvature="0" /></g><g
           id="g74"
           transform="translate(109.8511,45.7928)"><path
             d="M 0,0 C 1.265,0 2.439,0.33 3.525,0.991 4.569,1.652 5.446,2.663 6.156,4.026 L 8.824,2.876 C 7.861,0.967 6.622,-0.461 5.104,-1.408 3.553,-2.395 1.852,-2.889 0,-2.889 c -1.297,0 -2.542,0.249 -3.733,0.746 -1.15,0.498 -2.166,1.188 -3.047,2.069 -0.882,0.882 -1.572,1.897 -2.069,3.048 -0.498,1.192 -0.747,2.435 -0.747,3.733 0,1.297 0.249,2.546 0.747,3.745 0.497,1.143 1.187,2.154 2.069,3.035 0.881,0.881 1.897,1.572 3.047,2.069 1.191,0.497 2.436,0.747 3.733,0.747 1.852,0 3.553,-0.495 5.104,-1.482 1.518,-0.947 2.757,-2.374 3.72,-4.283 L 6.156,9.387 c -0.71,1.371 -1.587,2.375 -2.631,3.011 -1.086,0.678 -2.26,1.016 -3.525,1.016 -1.853,0 -3.436,-0.653 -4.749,-1.959 -1.306,-1.313 -1.958,-2.895 -1.958,-4.748 0,-1.853 0.652,-3.435 1.958,-4.749 C -3.436,0.653 -1.853,0 0,0"
             style="fill:#322a5f;fill-opacity:1;fill-rule:nonzero;stroke:none"
             id="path76"
             inkscape:connector-curvature="0" /></g><g
           id="g78"
           transform="translate(125.4438,57.2479)"><path
             d="m 0,0 c -1.314,-1.313 -1.971,-2.896 -1.971,-4.748 0,-1.853 0.657,-3.435 1.971,-4.749 1.305,-1.305 2.888,-1.958 4.749,-1.958 1.852,0 3.431,0.653 4.736,1.958 1.314,1.314 1.971,2.896 1.971,4.749 0,1.852 -0.657,3.435 -1.971,4.748 C 8.18,1.306 6.601,1.959 4.749,1.959 2.888,1.959 1.305,1.306 0,0 m 1.003,-13.598 c -1.142,0.498 -2.153,1.188 -3.035,2.069 -0.881,0.882 -1.571,1.892 -2.068,3.036 -0.506,1.199 -0.759,2.447 -0.759,3.745 0,1.297 0.253,2.541 0.759,3.732 0.497,1.151 1.187,2.167 2.068,3.048 0.882,0.881 1.893,1.567 3.035,2.056 1.191,0.507 2.44,0.76 3.746,0.76 1.297,0 2.541,-0.253 3.732,-0.76 1.143,-0.489 2.155,-1.175 3.036,-2.056 0.889,-0.881 1.579,-1.897 2.068,-3.048 0.506,-1.191 0.759,-2.435 0.759,-3.732 0,-1.298 -0.253,-2.546 -0.759,-3.745 -0.489,-1.144 -1.179,-2.154 -2.068,-3.036 -0.881,-0.881 -1.893,-1.571 -3.036,-2.069 -1.191,-0.497 -2.435,-0.746 -3.732,-0.746 -1.306,0 -2.555,0.249 -3.746,0.746"
             style="fill:#322a5f;fill-opacity:1;fill-rule:nonzero;stroke:none"
             id="path80"
             inkscape:connector-curvature="0" /></g><g
           id="g82"
           transform="translate(161.7207,52.9891)"><path
             d="m 0,0 c 0,-1.633 -0.252,-3.043 -0.759,-4.234 -0.489,-1.151 -1.175,-2.167 -2.056,-3.048 -0.889,-0.881 -1.905,-1.567 -3.047,-2.057 -1.193,-0.506 -2.441,-0.759 -3.745,-0.759 -1.298,0 -2.542,0.253 -3.734,0.759 -1.15,0.49 -2.166,1.176 -3.048,2.057 -0.881,0.881 -1.566,1.897 -2.055,3.048 -0.507,1.191 -0.759,2.435 -0.759,3.732 0,1.305 0.252,2.554 0.759,3.745 0.489,1.144 1.174,2.159 2.055,3.048 0.882,0.881 1.898,1.566 3.048,2.056 1.192,0.507 2.436,0.759 3.734,0.759 2.063,0 3.936,-0.604 5.617,-1.811 1.623,-1.176 2.844,-2.926 3.66,-5.251 h -3.158 c -0.629,1.322 -1.474,2.33 -2.533,3.023 -1.094,0.703 -2.29,1.052 -3.586,1.052 -1.829,0 -3.387,-0.643 -4.676,-1.933 -1.29,-1.297 -1.934,-2.86 -1.934,-4.688 0,-1.828 0.644,-3.386 1.934,-4.675 1.289,-1.29 2.847,-1.934 4.676,-1.934 1.493,0 2.827,0.448 4.002,1.346 1.15,0.881 1.872,1.807 2.166,2.779 h -6.634 V 0 Z"
             style="fill:#322a5f;fill-opacity:1;fill-rule:nonzero;stroke:none"
             id="path84"
             inkscape:connector-curvature="0" /></g><g
           id="g86"
           transform="translate(173.6904,49.3788)"><path
             d="M 0,0 -2.203,5.446 -4.406,0 Z M 5.618,-6.145 H 2.484 L 1.175,-2.9 h -6.756 l -1.31,-3.245 h -3.132 l 7.82,19.363 z"
             style="fill:#322a5f;fill-opacity:1;fill-rule:nonzero;stroke:none"
             id="path88"
             inkscape:connector-curvature="0" /></g><g
           id="g90"
           transform="translate(98.5747,113.8006)"><path
             d="m 0,0 c -1.885,-3.921 -4.463,-7.504 -7.339,-10.81 -1.413,-1.688 -3.025,-3.176 -4.595,-4.722 -0.788,-0.769 -1.662,-1.435 -2.497,-2.152 -0.852,-0.692 -1.666,-1.444 -2.57,-2.066 -1.783,-1.281 -3.513,-2.664 -5.416,-3.763 l -2.8,-1.743 c -0.929,-0.591 -1.919,-1.066 -2.876,-1.604 l -2.91,-1.547 c -0.975,-0.507 -1.989,-0.923 -2.982,-1.388 -1.998,-0.905 -3.981,-1.851 -6.039,-2.601 l -3.075,-1.156 c -1.022,-0.395 -2.048,-0.772 -3.097,-1.083 l -6.254,-1.972 c -4.243,-1.032 -8.439,-2.252 -12.744,-2.952 -8.539,-1.739 -17.22,-2.573 -25.881,-2.967 8.486,1.859 16.961,3.445 25.273,5.666 4.18,1.009 8.281,2.271 12.394,3.47 l 6.088,2.032 c 1.023,0.316 2.02,0.698 3.011,1.096 l 2.985,1.162 c 2.02,0.704 3.953,1.6 5.907,2.455 0.97,0.44 1.966,0.832 2.916,1.311 l 2.851,1.437 c 0.946,0.485 1.93,0.909 2.847,1.446 l 2.771,1.581 c 1.879,1.013 3.614,2.237 5.426,3.36 0.918,0.547 1.74,1.219 2.607,1.837 0.848,0.64 1.736,1.236 2.566,1.902 1.642,1.351 3.33,2.667 4.85,4.166 C -5.437,-6.714 -2.552,-3.513 0,0"
             style="fill:#322a5f;fill-opacity:1;fill-rule:nonzero;stroke:none"
             id="path92"
             inkscape:connector-curvature="0" /></g><g
           id="g94"
           transform="translate(80.54,110.3822)"><path
             d="m 0,0 c 2.53,-1.923 4.547,-4.48 6.281,-7.168 0.9,-1.339 1.602,-2.781 2.338,-4.217 0.4,-0.707 0.669,-1.464 0.965,-2.213 l 0.885,-2.253 c 0.528,-1.521 0.94,-3.081 1.376,-4.637 0.373,-1.568 0.614,-3.161 0.926,-4.746 0.066,-0.398 0.166,-0.793 0.203,-1.193 l 0.096,-1.203 0.193,-2.407 c 0.058,-0.803 0.142,-1.606 0.176,-2.409 l -0.014,-2.408 -0.056,-2.409 c -0.031,-0.801 -0.004,-1.608 -0.12,-2.401 -0.176,-1.591 -0.331,-3.185 -0.528,-4.773 -0.148,-1.596 -0.512,-3.152 -0.836,-4.714 -0.316,-1.563 -0.662,-3.119 -1.021,-4.668 -0.884,-3.056 -1.871,-6.08 -2.901,-9.068 -1.248,-2.92 -2.483,-5.832 -3.861,-8.666 0.641,3.111 1.424,6.144 2.195,9.171 l 1.864,9.153 c 0.202,1.539 0.417,3.072 0.662,4.599 0.234,1.527 0.508,3.049 0.565,4.592 0.114,1.537 0.27,3.067 0.404,4.6 0.131,1.532 0.049,3.068 0.09,4.6 l 0.057,2.3 c -0.02,0.765 -0.088,1.527 -0.13,2.29 l -0.142,2.29 c -0.035,0.766 -0.093,1.528 -0.213,2.282 -0.218,1.508 -0.364,3.036 -0.638,4.538 -0.357,1.481 -0.616,2.993 -0.982,4.478 -0.846,2.931 -1.735,5.886 -3.072,8.662 C 3.504,-5.183 1.968,-2.47 0,0"
             style="fill:#322a5f;fill-opacity:1;fill-rule:nonzero;stroke:none"
             id="path96"
             inkscape:connector-curvature="0" /></g><g
           id="g98"
           transform="translate(98.5747,36.9354)"><path
             d="m 0,0 c -2.552,3.514 -5.437,6.714 -8.583,9.605 -1.52,1.499 -3.208,2.815 -4.85,4.166 -0.83,0.666 -1.718,1.262 -2.566,1.902 -0.867,0.618 -1.689,1.29 -2.607,1.838 -1.812,1.123 -3.547,2.346 -5.426,3.358 l -2.771,1.582 c -0.917,0.536 -1.901,0.96 -2.847,1.446 l -2.851,1.437 c -0.95,0.479 -1.946,0.871 -2.916,1.311 -1.954,0.854 -3.887,1.751 -5.907,2.455 l -2.985,1.162 c -0.991,0.398 -1.988,0.779 -3.011,1.096 l -6.088,2.032 c -4.113,1.199 -8.214,2.461 -12.394,3.469 -8.312,2.222 -16.787,3.808 -25.273,5.667 8.661,-0.394 17.342,-1.228 25.881,-2.967 4.305,-0.7 8.501,-1.92 12.744,-2.952 l 6.254,-1.972 c 1.049,-0.311 2.075,-0.688 3.097,-1.083 l 3.075,-1.156 c 2.058,-0.75 4.041,-1.696 6.039,-2.601 0.993,-0.466 2.007,-0.881 2.982,-1.388 l 2.91,-1.547 c 0.957,-0.539 1.947,-1.013 2.876,-1.604 l 2.8,-1.743 c 1.903,-1.1 3.633,-2.482 5.416,-3.763 0.904,-0.622 1.718,-1.373 2.57,-2.066 0.835,-0.717 1.709,-1.383 2.497,-2.152 1.57,-1.546 3.182,-3.034 4.595,-4.721 C -4.463,7.504 -1.885,3.921 0,0"
             style="fill:#322a5f;fill-opacity:1;fill-rule:nonzero;stroke:none"
             id="path100"
             inkscape:connector-curvature="0" /></g><g
           id="g102"
           transform="translate(90.6348,85.1376)"><path
             d="m 0,0 c -1.922,0 -3.48,-4.736 -3.48,-10.579 0,-5.842 1.558,-10.578 3.48,-10.578"
             style="fill:#322a5f;fill-opacity:1;fill-rule:nonzero;stroke:none"
             id="path104"
             inkscape:connector-curvature="0" /></g><g
           id="g106"
           transform="translate(182.4248,113.8006)"><path
             d="m 0,0 c 2.553,-3.513 5.438,-6.714 8.583,-9.605 1.521,-1.499 3.209,-2.815 4.851,-4.166 0.83,-0.666 1.717,-1.262 2.566,-1.902 0.866,-0.618 1.689,-1.29 2.607,-1.837 1.812,-1.123 3.547,-2.347 5.425,-3.36 l 2.771,-1.581 c 0.918,-0.537 1.901,-0.961 2.847,-1.446 l 2.852,-1.437 c 0.95,-0.479 1.945,-0.871 2.916,-1.311 1.953,-0.855 3.887,-1.751 5.906,-2.455 l 2.986,-1.162 c 0.99,-0.398 1.988,-0.78 3.01,-1.096 l 6.089,-2.032 c 4.112,-1.199 8.213,-2.461 12.393,-3.47 8.312,-2.221 16.787,-3.807 25.273,-5.666 -8.661,0.394 -17.342,1.228 -25.881,2.967 -4.305,0.7 -8.501,1.92 -12.744,2.952 l -6.254,1.972 c -1.048,0.311 -2.075,0.688 -3.097,1.083 l -3.075,1.156 c -2.058,0.75 -4.041,1.696 -6.038,2.601 -0.993,0.465 -2.008,0.881 -2.982,1.388 l -2.91,1.547 c -0.958,0.538 -1.948,1.013 -2.877,1.604 l -2.8,1.743 c -1.903,1.099 -3.633,2.482 -5.415,3.763 -0.905,0.622 -1.719,1.374 -2.57,2.066 -0.835,0.717 -1.709,1.383 -2.497,2.152 -1.571,1.546 -3.182,3.034 -4.595,4.722 C 4.464,-7.504 1.885,-3.921 0,0"
             style="fill:#322a5f;fill-opacity:1;fill-rule:nonzero;stroke:none"
             id="path108"
             inkscape:connector-curvature="0" /></g><g
           id="g110"
           transform="translate(200.46,110.3822)"><path
             d="m 0,0 c -1.968,-2.47 -3.504,-5.183 -4.762,-7.998 -1.338,-2.776 -2.226,-5.731 -3.073,-8.662 -0.364,-1.485 -0.625,-2.997 -0.981,-4.478 -0.274,-1.502 -0.419,-3.03 -0.637,-4.538 -0.121,-0.754 -0.179,-1.516 -0.214,-2.282 l -0.143,-2.29 c -0.041,-0.763 -0.109,-1.525 -0.129,-2.29 l 0.057,-2.3 c 0.041,-1.532 -0.041,-3.068 0.089,-4.6 0.135,-1.533 0.29,-3.063 0.404,-4.6 0.058,-1.543 0.331,-3.065 0.567,-4.592 0.244,-1.527 0.459,-3.06 0.661,-4.599 l 1.864,-9.153 c 0.771,-3.027 1.555,-6.06 2.195,-9.171 -1.377,2.834 -2.613,5.746 -3.861,8.666 -1.03,2.988 -2.016,6.012 -2.901,9.068 -0.359,1.549 -0.705,3.105 -1.021,4.668 -0.325,1.562 -0.688,3.118 -0.837,4.714 -0.196,1.588 -0.35,3.182 -0.527,4.773 -0.116,0.793 -0.089,1.6 -0.12,2.401 l -0.056,2.409 -0.014,2.408 c 0.035,0.803 0.119,1.606 0.176,2.409 l 0.193,2.407 0.096,1.203 c 0.037,0.4 0.137,0.795 0.203,1.193 0.311,1.585 0.552,3.178 0.925,4.746 0.437,1.556 0.849,3.116 1.377,4.637 l 0.885,2.253 c 0.297,0.749 0.565,1.506 0.965,2.213 0.736,1.436 1.438,2.878 2.338,4.217 C -4.547,-4.48 -2.53,-1.923 0,0"
             style="fill:#322a5f;fill-opacity:1;fill-rule:nonzero;stroke:none"
             id="path112"
             inkscape:connector-curvature="0" /></g><g
           id="g114"
           transform="translate(182.4248,36.9354)"><path
             d="m 0,0 c 1.885,3.921 4.464,7.504 7.34,10.811 1.413,1.687 3.024,3.175 4.595,4.721 0.788,0.769 1.662,1.435 2.497,2.152 0.851,0.693 1.665,1.444 2.57,2.066 1.782,1.281 3.512,2.663 5.415,3.763 l 2.8,1.743 c 0.929,0.591 1.919,1.065 2.877,1.604 l 2.91,1.547 c 0.974,0.507 1.989,0.922 2.982,1.388 1.997,0.905 3.98,1.851 6.038,2.601 l 3.075,1.156 c 1.022,0.395 2.049,0.772 3.097,1.083 l 6.254,1.972 c 4.243,1.032 8.439,2.252 12.744,2.952 8.539,1.739 17.22,2.573 25.881,2.967 C 82.589,40.667 74.114,39.081 65.802,36.859 61.622,35.851 57.521,34.589 53.409,33.39 L 47.32,31.358 C 46.298,31.041 45.3,30.66 44.31,30.262 L 41.324,29.1 c -2.019,-0.704 -3.953,-1.601 -5.906,-2.455 -0.971,-0.44 -1.966,-0.832 -2.916,-1.311 L 29.65,23.897 c -0.946,-0.486 -1.929,-0.91 -2.847,-1.446 L 24.032,20.869 C 22.154,19.857 20.419,18.634 18.607,17.511 17.689,16.963 16.866,16.291 16,15.673 15.151,15.033 14.264,14.437 13.434,13.771 11.792,12.42 10.104,11.104 8.583,9.605 5.438,6.714 2.553,3.514 0,0"
             style="fill:#322a5f;fill-opacity:1;fill-rule:nonzero;stroke:none"
             id="path116"
             inkscape:connector-curvature="0" /></g><g
           id="g118"
           transform="translate(190.3652,85.1376)"><path
             d="M 0,0 C 1.922,0 3.48,-4.736 3.48,-10.579 3.48,-16.421 1.922,-21.157 0,-21.157"
             style="fill:#322a5f;fill-opacity:1;fill-rule:nonzero;stroke:none"
             id="path120"
             inkscape:connector-curvature="0" /></g></g></g><g
       id="g122"><g
         id="g124"
         clip-path="url(#clipPath128)"><g
           id="g130"
           transform="translate(69.5933,28.0194)"><path
             d="M 0,0 C 0.481,0 0.927,0.127 1.337,0.381 1.735,0.629 2.043,0.959 2.259,1.372 L 2.882,1.104 C 2.611,0.567 2.221,0.138 1.714,-0.182 1.191,-0.511 0.62,-0.676 0,-0.676 c -0.436,0 -0.853,0.085 -1.25,0.252 -0.387,0.164 -0.729,0.396 -1.026,0.693 -0.298,0.296 -0.528,0.637 -0.693,1.025 -0.167,0.397 -0.251,0.815 -0.251,1.25 0,0.435 0.084,0.854 0.251,1.255 0.165,0.384 0.395,0.724 0.693,1.021 0.297,0.297 0.639,0.529 1.026,0.694 C -0.853,5.68 -0.436,5.764 0,5.764 0.62,5.764 1.191,5.6 1.714,5.271 2.221,4.95 2.611,4.521 2.882,3.985 L 2.259,3.717 C 2.043,4.133 1.735,4.463 1.337,4.708 0.927,4.962 0.481,5.089 0,5.089 c -0.701,0 -1.301,-0.248 -1.8,-0.745 -0.496,-0.498 -0.744,-1.099 -0.744,-1.8 0,-0.701 0.248,-1.301 0.744,-1.8 C -1.301,0.248 -0.701,0 0,0"
             style="fill:#9181a3;fill-opacity:1;fill-rule:nonzero;stroke:none"
             id="path132"
             inkscape:connector-curvature="0" /></g></g></g><g
       id="g134"><g
         id="g136"
         clip-path="url(#clipPath140)"><g
           id="g142"
           transform="translate(73.2891,33.6581)"><path
             d="m 0,0 v -6.205 h 3.699 v 0.683 H 0.683 v 2.095 h 2.432 v 0.683 H 0.683 v 2.059 H 3.699 V 0 Z"
             style="fill:#9181a3;fill-opacity:1;fill-rule:nonzero;stroke:none"
             id="path144"
             inkscape:connector-curvature="0" /></g><g
           id="g146"
           transform="translate(77.9624,27.453)"><path
             d="m 0,0 h 0.683 v 4.6 l 4.454,-4.735 v 6.34 H 4.453 V 1.588 L 0,6.326 Z"
             style="fill:#9181a3;fill-opacity:1;fill-rule:nonzero;stroke:none"
             id="path148"
             inkscape:connector-curvature="0" /></g><g
           id="g150"
           transform="translate(83.9038,33.6581)"><path
             d="m 0,0 v -0.685 h 2.225 v -5.52 h 0.683 v 5.52 H 5.106 V 0 Z"
             style="fill:#9181a3;fill-opacity:1;fill-rule:nonzero;stroke:none"
             id="path152"
             inkscape:connector-curvature="0" /></g></g></g><g
       id="g154"><g
         id="g156"
         clip-path="url(#clipPath160)"><g
           id="g162"
           transform="translate(93.0781,29.5555)"><path
             d="M 0,0 C 0.346,-0.228 0.62,-0.525 0.822,-0.892 1.027,-1.267 1.129,-1.669 1.129,-2.099 V -2.104 H 0.446 v 0.005 c 0,0.504 -0.179,0.937 -0.537,1.298 -0.36,0.362 -0.795,0.541 -1.303,0.541 H -2.536 V -2.104 H -3.22 v 6.207 h 2.181 c 0.603,0 1.118,-0.214 1.545,-0.641 C 0.933,3.035 1.146,2.521 1.146,1.921 1.146,1.515 1.04,1.136 0.827,0.788 0.622,0.453 0.346,0.19 0,0 M -2.536,3.418 V 0.425 h 1.497 c 0.416,0 0.769,0.144 1.06,0.436 0.291,0.294 0.438,0.648 0.438,1.06 0,0.413 -0.147,0.765 -0.438,1.056 -0.291,0.294 -0.644,0.441 -1.06,0.441 z"
             style="fill:#9181a3;fill-opacity:1;fill-rule:nonzero;stroke:none"
             id="path164"
             inkscape:connector-curvature="0" /></g><g
           id="g166"
           transform="translate(97.0288,27.5956)"><path
             d="m 0,0 c -0.384,0.163 -0.724,0.395 -1.021,0.691 -0.298,0.297 -0.528,0.639 -0.693,1.022 -0.17,0.401 -0.255,0.819 -0.255,1.256 0,0.434 0.085,0.851 0.255,1.25 0.165,0.386 0.395,0.728 0.693,1.025 0.297,0.297 0.637,0.527 1.021,0.689 0.398,0.171 0.816,0.254 1.255,0.254 0.436,0 0.852,-0.083 1.25,-0.254 C 2.889,5.771 3.229,5.541 3.526,5.244 3.827,4.947 4.058,4.605 4.22,4.219 4.39,3.82 4.475,3.403 4.475,2.969 4.475,2.532 4.39,2.114 4.22,1.713 4.058,1.33 3.827,0.988 3.526,0.691 3.229,0.395 2.889,0.163 2.505,0 2.107,-0.168 1.691,-0.251 1.255,-0.251 0.816,-0.251 0.398,-0.168 0,0 m -0.545,4.769 c -0.499,-0.5 -0.749,-1.099 -0.749,-1.8 0,-0.702 0.25,-1.301 0.749,-1.801 0.496,-0.496 1.096,-0.745 1.8,-0.745 0.701,0 1.299,0.249 1.796,0.745 0.498,0.5 0.748,1.099 0.748,1.801 0,0.701 -0.25,1.3 -0.748,1.8 -0.497,0.495 -1.095,0.744 -1.796,0.744 -0.704,0 -1.304,-0.249 -1.8,-0.744"
             style="fill:#9181a3;fill-opacity:1;fill-rule:nonzero;stroke:none"
             id="path168"
             inkscape:connector-curvature="0" /></g><g
           id="g170"
           transform="translate(104.1992,27.452)"><path
             d="M 0,0 V 6.206 H 2.082 C 2.503,6.206 2.905,6.123 3.289,5.959 3.658,5.804 3.987,5.583 4.275,5.298 4.561,5.009 4.782,4.68 4.937,4.311 5.102,3.927 5.185,3.524 5.185,3.104 5.185,2.685 5.102,2.282 4.937,1.896 4.782,1.526 4.56,1.199 4.271,0.913 3.986,0.625 3.658,0.402 3.289,0.247 2.903,0.083 2.5,0 2.082,0 Z M 2.086,0.684 C 2.75,0.687 3.318,0.924 3.791,1.394 4.264,1.867 4.5,2.437 4.5,3.104 4.5,3.77 4.264,4.339 3.791,4.812 3.318,5.286 2.75,5.522 2.086,5.522 H 0.646 V 0.684 Z"
             style="fill:#9181a3;fill-opacity:1;fill-rule:nonzero;stroke:none"
             id="path172"
             inkscape:connector-curvature="0" /></g></g></g><g
       id="g174"><g
         id="g176"
         clip-path="url(#clipPath180)"><g
           id="g182"
           transform="translate(110.3706,33.6581)"><path
             d="m 0,0 v -6.205 h 3.699 v 0.683 H 0.683 v 2.095 h 2.432 v 0.683 H 0.683 v 2.059 H 3.699 V 0 Z"
             style="fill:#9181a3;fill-opacity:1;fill-rule:nonzero;stroke:none"
             id="path184"
             inkscape:connector-curvature="0" /></g></g></g><g
       id="g186"><g
         id="g188"
         clip-path="url(#clipPath192)"><g
           id="g194"
           transform="translate(118.4668,27.5956)"><path
             d="m 0,0 c -0.384,0.163 -0.724,0.395 -1.021,0.691 -0.298,0.297 -0.528,0.639 -0.693,1.022 -0.17,0.401 -0.255,0.819 -0.255,1.256 0,0.434 0.085,0.851 0.255,1.25 0.165,0.386 0.395,0.728 0.693,1.025 0.297,0.297 0.637,0.527 1.021,0.689 0.398,0.171 0.816,0.254 1.255,0.254 0.436,0 0.852,-0.083 1.25,-0.254 C 2.889,5.771 3.229,5.541 3.526,5.244 3.827,4.947 4.058,4.605 4.219,4.219 4.39,3.82 4.475,3.403 4.475,2.969 4.475,2.532 4.39,2.114 4.219,1.713 4.058,1.33 3.827,0.988 3.526,0.691 3.229,0.395 2.889,0.163 2.505,0 2.107,-0.168 1.691,-0.251 1.255,-0.251 0.816,-0.251 0.398,-0.168 0,0 m -0.545,4.769 c -0.499,-0.5 -0.749,-1.099 -0.749,-1.8 0,-0.702 0.25,-1.301 0.749,-1.801 0.496,-0.496 1.096,-0.745 1.8,-0.745 0.701,0 1.299,0.249 1.795,0.745 0.499,0.5 0.749,1.099 0.749,1.801 0,0.701 -0.25,1.3 -0.749,1.8 -0.496,0.495 -1.094,0.744 -1.795,0.744 -0.704,0 -1.304,-0.249 -1.8,-0.744"
             style="fill:#9181a3;fill-opacity:1;fill-rule:nonzero;stroke:none"
             id="path196"
             inkscape:connector-curvature="0" /></g><g
           id="g198"
           transform="translate(126.23,33.6581)"><path
             d="m 0,0 c 0.6,0 1.113,-0.214 1.541,-0.641 0.427,-0.423 0.64,-0.937 0.64,-1.541 0,-0.599 -0.213,-1.113 -0.64,-1.54 C 1.113,-4.148 0.6,-4.362 0,-4.362 H -1.501 V -6.206 H -2.186 V 0 Z m 0,-3.678 c 0.412,0 0.765,0.145 1.056,0.437 0.294,0.294 0.442,0.646 0.442,1.059 0,0.413 -0.148,0.766 -0.442,1.061 C 0.765,-0.83 0.412,-0.684 0,-0.684 h -1.501 v -2.994 z"
             style="fill:#9181a3;fill-opacity:1;fill-rule:nonzero;stroke:none"
             id="path200"
             inkscape:connector-curvature="0" /></g></g></g><g
       id="g202"><g
         id="g204"
         clip-path="url(#clipPath208)"><g
           id="g210"
           transform="translate(128.9609,33.6581)"><path
             d="m 0,0 v -0.685 h 2.224 v -5.52 h 0.684 v 5.52 H 5.106 V 0 Z"
             style="fill:#9181a3;fill-opacity:1;fill-rule:nonzero;stroke:none"
             id="path212"
             inkscape:connector-curvature="0" /></g></g></g><g
       id="g214"><g
         id="g216"
         clip-path="url(#clipPath220)"><g
           id="g222"
           transform="translate(136.0967,27.5956)"><path
             d="m 0,0 c -0.384,0.163 -0.724,0.395 -1.021,0.691 -0.298,0.297 -0.528,0.639 -0.693,1.022 -0.169,0.401 -0.255,0.819 -0.255,1.256 0,0.434 0.086,0.851 0.255,1.25 0.165,0.386 0.395,0.728 0.693,1.025 0.297,0.297 0.637,0.527 1.021,0.689 0.398,0.171 0.816,0.254 1.255,0.254 0.436,0 0.852,-0.083 1.25,-0.254 C 2.889,5.771 3.229,5.541 3.526,5.244 3.827,4.947 4.058,4.605 4.219,4.219 4.39,3.82 4.475,3.403 4.475,2.969 4.475,2.532 4.39,2.114 4.219,1.713 4.058,1.33 3.827,0.988 3.526,0.691 3.229,0.395 2.889,0.163 2.505,0 2.107,-0.168 1.691,-0.251 1.255,-0.251 0.816,-0.251 0.398,-0.168 0,0 m -0.545,4.769 c -0.499,-0.5 -0.749,-1.099 -0.749,-1.8 0,-0.702 0.25,-1.301 0.749,-1.801 0.496,-0.496 1.096,-0.745 1.8,-0.745 0.701,0 1.299,0.249 1.795,0.745 0.499,0.5 0.749,1.099 0.749,1.801 0,0.701 -0.25,1.3 -0.749,1.8 -0.496,0.495 -1.094,0.744 -1.795,0.744 -0.704,0 -1.304,-0.249 -1.8,-0.744"
             style="fill:#9181a3;fill-opacity:1;fill-rule:nonzero;stroke:none"
             id="path224"
             inkscape:connector-curvature="0" /></g></g></g><g
       id="g226"><g
         id="g228"
         clip-path="url(#clipPath232)"><g
           id="g234"
           transform="translate(141.2329,27.453)"><path
             d="M 0,0 H 0.706 L 1.687,4.084 3.418,-0.229 5.176,4.093 6.163,0 H 6.868 L 5.344,6.33 3.423,1.604 1.528,6.339 Z"
             style="fill:#9181a3;fill-opacity:1;fill-rule:nonzero;stroke:none"
             id="path236"
             inkscape:connector-curvature="0" /></g><g
           id="g238"
           transform="translate(149.1826,33.6581)"><path
             d="m 0,0 v -6.205 h 3.7 v 0.683 H 0.684 v 2.095 h 2.431 v 0.683 H 0.684 v 2.059 H 3.7 V 0 Z"
             style="fill:#9181a3;fill-opacity:1;fill-rule:nonzero;stroke:none"
             id="path240"
             inkscape:connector-curvature="0" /></g><g
           id="g242"
           transform="translate(153.4404,33.6581)"><path
             d="m 0,0 v -0.685 h 2.225 v -5.52 h 0.683 v 5.52 H 5.106 V 0 Z"
             style="fill:#9181a3;fill-opacity:1;fill-rule:nonzero;stroke:none"
             id="path244"
             inkscape:connector-curvature="0" /></g></g></g><g
       id="g246"><g
         id="g248"
         clip-path="url(#clipPath252)"><g
           id="g254"
           transform="translate(162.6152,29.5555)"><path
             d="M 0,0 C 0.346,-0.228 0.62,-0.525 0.822,-0.892 1.026,-1.267 1.129,-1.669 1.129,-2.099 V -2.104 H 0.445 v 0.005 c 0,0.504 -0.178,0.937 -0.536,1.298 -0.36,0.362 -0.795,0.541 -1.303,0.541 H -2.536 V -2.104 H -3.22 v 6.207 h 2.181 c 0.602,0 1.117,-0.214 1.545,-0.641 C 0.933,3.035 1.146,2.521 1.146,1.921 1.146,1.515 1.039,1.136 0.826,0.788 0.622,0.453 0.346,0.19 0,0 M -2.536,3.418 V 0.425 h 1.497 c 0.416,0 0.769,0.144 1.06,0.436 0.291,0.294 0.438,0.648 0.438,1.06 0,0.413 -0.147,0.765 -0.438,1.056 -0.291,0.294 -0.644,0.441 -1.06,0.441 z"
             style="fill:#9181a3;fill-opacity:1;fill-rule:nonzero;stroke:none"
             id="path256"
             inkscape:connector-curvature="0" /></g></g></g><g
       id="g258"><g
         id="g260"
         clip-path="url(#clipPath264)"><g
           id="g266"
           transform="translate(165.5488,35.2762)"><path
             d="m 0,0 -0.71,-1.021 0.546,-0.377 0.71,1.017 z M -0.684,-7.823 H 0 v 6.205 h -0.684 z"
             style="fill:#9181a3;fill-opacity:1;fill-rule:nonzero;stroke:none"
             id="path268"
             inkscape:connector-curvature="0" /></g><g
           id="g270"
           transform="translate(166.3887,27.453)"><path
             d="M 0,0 H 0.735 L 1.198,1.146 H 3.82 L 4.284,0 H 5.02 L 2.509,6.21 Z M 2.509,4.388 3.544,1.825 H 1.476 Z"
             style="fill:#9181a3;fill-opacity:1;fill-rule:nonzero;stroke:none"
             id="path272"
             inkscape:connector-curvature="0" /></g></g></g><g
       id="g274"><g
         id="g276"
         clip-path="url(#clipPath280)"><g
           id="g282"
           transform="translate(180.1367,30.5633)"><path
             d="m 0,0 c 0,-0.438 -0.085,-0.856 -0.256,-1.255 -0.161,-0.387 -0.39,-0.728 -0.687,-1.025 -0.3,-0.297 -0.643,-0.527 -1.027,-0.689 -0.397,-0.17 -0.816,-0.255 -1.255,-0.255 -0.434,0 -0.852,0.085 -1.25,0.255 -0.386,0.162 -0.728,0.392 -1.025,0.689 -0.298,0.297 -0.526,0.638 -0.688,1.025 -0.17,0.399 -0.256,0.816 -0.256,1.251 0,0.439 0.086,0.857 0.256,1.255 0.162,0.384 0.39,0.726 0.688,1.025 0.297,0.297 0.639,0.527 1.025,0.689 0.398,0.17 0.816,0.255 1.25,0.255 0.694,0 1.321,-0.201 1.883,-0.606 0.549,-0.395 0.933,-0.91 1.155,-1.545 h -0.765 c -0.205,0.433 -0.51,0.78 -0.913,1.038 -0.413,0.269 -0.865,0.403 -1.36,0.403 -0.692,0 -1.283,-0.244 -1.774,-0.736 -0.49,-0.493 -0.735,-1.086 -0.735,-1.778 0,-0.692 0.245,-1.283 0.735,-1.774 0.491,-0.492 1.082,-0.736 1.774,-0.736 0.567,0 1.073,0.17 1.52,0.51 0.438,0.336 0.735,0.768 0.892,1.294 H -3.216 V 0 Z"
             style="fill:#9181a3;fill-opacity:1;fill-rule:nonzero;stroke:none"
             id="path284"
             inkscape:connector-curvature="0" /></g></g></g><g
       id="g286"><g
         id="g288"
         clip-path="url(#clipPath292)"><g
           id="g294"
           transform="translate(180.8252,27.453)"><path
             d="M 0,0 H 0.735 L 1.198,1.146 H 3.82 L 4.284,0 H 5.02 L 2.509,6.21 Z M 2.509,4.388 3.544,1.825 H 1.476 Z"
             style="fill:#9181a3;fill-opacity:1;fill-rule:nonzero;stroke:none"
             id="path296"
             inkscape:connector-curvature="0" /></g><g
           id="g298"
           transform="translate(186.6797,33.6581)"><path
             d="m 0,0 v -6.205 h 3.873 v 0.683 h -3.19 l 0,5.522 z"
             style="fill:#9181a3;fill-opacity:1;fill-rule:nonzero;stroke:none"
             id="path300"
             inkscape:connector-curvature="0" /></g><g
           id="g302"
           transform="translate(191.5264,33.6581)"><path
             d="m 0,0 v -6.205 h 3.873 v 0.683 H 0.684 l 0,5.522 z"
             style="fill:#9181a3;fill-opacity:1;fill-rule:nonzero;stroke:none"
             id="path304"
             inkscape:connector-curvature="0" /></g><g
           id="g306"
           transform="translate(196.3691,33.6581)"><path
             d="m 0,0 v -6.205 h 3.7 v 0.683 H 0.684 v 2.095 h 2.431 v 0.683 H 0.684 v 2.059 H 3.7 V 0 Z"
             style="fill:#9181a3;fill-opacity:1;fill-rule:nonzero;stroke:none"
             id="path308"
             inkscape:connector-curvature="0" /></g></g></g><g
       id="g310"><g
         id="g312"
         clip-path="url(#clipPath316)"><g
           id="g318"
           transform="translate(207.2178,30.5633)"><path
             d="m 0,0 c 0,-0.438 -0.085,-0.856 -0.255,-1.255 -0.162,-0.387 -0.391,-0.728 -0.688,-1.025 -0.3,-0.297 -0.643,-0.527 -1.027,-0.689 -0.397,-0.17 -0.815,-0.255 -1.255,-0.255 -0.434,0 -0.852,0.085 -1.25,0.255 -0.386,0.162 -0.728,0.392 -1.025,0.689 -0.297,0.297 -0.526,0.638 -0.687,1.025 -0.172,0.399 -0.257,0.816 -0.257,1.251 0,0.439 0.085,0.857 0.257,1.255 0.161,0.384 0.39,0.726 0.687,1.025 0.297,0.297 0.639,0.527 1.025,0.689 0.398,0.17 0.816,0.255 1.25,0.255 0.694,0 1.322,-0.201 1.883,-0.606 0.548,-0.395 0.934,-0.91 1.155,-1.545 h -0.765 c -0.205,0.433 -0.509,0.78 -0.912,1.038 -0.413,0.269 -0.866,0.403 -1.361,0.403 -0.691,0 -1.283,-0.244 -1.773,-0.736 -0.49,-0.493 -0.736,-1.086 -0.736,-1.778 0,-0.692 0.246,-1.283 0.736,-1.774 0.49,-0.492 1.082,-0.736 1.773,-0.736 0.566,0 1.073,0.17 1.52,0.51 0.438,0.336 0.735,0.768 0.892,1.294 H -3.216 V 0 Z"
             style="fill:#9181a3;fill-opacity:1;fill-rule:nonzero;stroke:none"
             id="path320"
             inkscape:connector-curvature="0" /></g><g
           id="g322"
           transform="translate(210.1514,27.5956)"><path
             d="m 0,0 c -0.384,0.163 -0.724,0.395 -1.021,0.691 -0.296,0.297 -0.528,0.639 -0.693,1.022 -0.17,0.401 -0.255,0.819 -0.255,1.256 0,0.434 0.085,0.851 0.255,1.25 0.165,0.386 0.397,0.728 0.693,1.025 C -0.724,5.541 -0.384,5.771 0,5.933 0.398,6.104 0.816,6.187 1.255,6.187 1.69,6.187 2.107,6.104 2.506,5.933 2.89,5.771 3.229,5.541 3.526,5.244 3.827,4.947 4.058,4.605 4.22,4.219 4.39,3.82 4.475,3.403 4.475,2.969 4.475,2.532 4.39,2.114 4.22,1.713 4.058,1.33 3.827,0.988 3.526,0.691 3.229,0.395 2.89,0.163 2.506,0 2.107,-0.168 1.69,-0.251 1.255,-0.251 0.816,-0.251 0.398,-0.168 0,0 m -0.545,4.769 c -0.5,-0.5 -0.749,-1.099 -0.749,-1.8 0,-0.702 0.249,-1.301 0.749,-1.801 0.496,-0.496 1.097,-0.745 1.8,-0.745 0.701,0 1.301,0.249 1.796,0.745 0.5,0.5 0.749,1.099 0.749,1.801 0,0.701 -0.249,1.3 -0.749,1.8 -0.495,0.495 -1.095,0.744 -1.796,0.744 -0.703,0 -1.304,-0.249 -1.8,-0.744"
             style="fill:#9181a3;fill-opacity:1;fill-rule:nonzero;stroke:none"
             id="path324"
             inkscape:connector-curvature="0" /></g></g></g></g></svg>