<?xml version="1.0"?>
<svg xmlns="http://www.w3.org/2000/svg" viewBox="0 0 64 64" width="512px" height="512px" class=""><g><path d="m41 52v-5h-6v1.875a2.91079 2.91079 0 0 1 -3 2.8125 2.91079 2.91079 0 0 1 -3-2.8125v-1.875h-6v5l-2-.3125a2.91079 2.91079 0 0 0 -3 2.8125 2.91079 2.91079 0 0 0 3 2.8125l2-.3125v5h18v-5l2 .3125a2.91079 2.91079 0 0 0 3-2.8125 2.91079 2.91079 0 0 0 -3-2.8125z" fill="#628ecc" data-original="#628ECC" class=""/><path d="m23 42v5h-6v-1.875a2.91079 2.91079 0 0 0 -3-2.8125 2.91079 2.91079 0 0 0 -3 2.8125v1.875h-6v-15h18v5l2-.3125a2.91079 2.91079 0 0 1 3 2.8125 2.91079 2.91079 0 0 1 -3 2.8125z" fill="#17afdc" data-original="#17AFDC" class="" style="fill:#17AFDC"/><path d="m23 52v-5h-6v-1.875a2.91079 2.91079 0 0 0 -3-2.8125 2.91079 2.91079 0 0 0 -3 2.8125v1.875h-6v15h18v-5l-2 .3125a2.91079 2.91079 0 0 1 -3-2.8125 2.91079 2.91079 0 0 1 3-2.8125z" fill="#5358a1" data-original="#5358A1" class="active-path" style="fill:#342A5F" data-old_color="#342a5f"/><path d="m41 52v-5h6v-1.875a2.91079 2.91079 0 0 1 3-2.8125 2.91079 2.91079 0 0 1 3 2.8125v1.875h6v15h-18v-5l2 .3125a2.91079 2.91079 0 0 0 3-2.8125 2.91079 2.91079 0 0 0 -3-2.8125z" fill="#5358a1" data-original="#5358A1" class="active-path" style="fill:#342A5F" data-old_color="#342a5f"/><path d="m25 36.6875-2 .3125v-5h-18v2h16v5l2-.3125a2.91076 2.91076 0 0 1 3 2.8125 2.63105 2.63105 0 0 1 -.09442.66779 2.83067 2.83067 0 0 0 2.09442-2.66779 2.91076 2.91076 0 0 0 -3-2.8125z" fill="#03c9ea" data-original="#03C9EA" class=""/><path d="m41 42v5h6v-1.875a2.91079 2.91079 0 0 1 3-2.8125 2.91079 2.91079 0 0 1 3 2.8125v1.875h6v-15h-18v5l-2-.3125a2.91079 2.91079 0 0 0 -3 2.8125 2.91079 2.91079 0 0 0 3 2.8125z" fill="#17afdc" data-original="#17AFDC" class="" style="fill:#17AFDC"/><path d="m29 50.875a3.00625 3.00625 0 0 0 6 0v-1.875h6v-2h-6v1.875a3.00625 3.00625 0 0 1 -6 0v-1.875h-6v2h6z" fill="#a9c7fc" data-original="#A9C7FC" class=""/><g fill="#ffd700"><path d="m25 14.7619a2.86055 2.86055 0 1 1 0 5.71429l-2-.31746v4.84127h6v2.14286a3.00357 3.00357 0 0 0 6 0v-2.14286h6v-4.84127l-2 .31746a2.86055 2.86055 0 1 1 0-5.71429l2 .31747v-5.07937h-18v5.07937z" data-original="#000000" class="" style="fill:#342A5F" data-old_color="#342a5f"/><path d="m31 2h2v5h-2z" data-original="#000000" class="" style="fill:#342A5F" data-old_color="#342a5f"/><path d="m17.72201 3.99401h2.00032v4.56765h-2.00032z" transform="matrix(.75407132 -.65679254 .65679254 .75407132 .48108 13.84048)" data-original="#000000" class="" style="fill:#342A5F" data-old_color="#342a5f"/><path d="m42.84563 5.50016h4.56802v1.99968h-4.56802z" transform="matrix(.75402696 -.65684347 .65684347 .75402696 6.83119 31.24193)" data-original="#000000" class="" style="fill:#342A5F" data-old_color="#342a5f"/><path d="m15 17h5v2h-5z" data-original="#000000" class="" style="fill:#342A5F" data-old_color="#342a5f"/><path d="m44 17h5v2h-5z" data-original="#000000" class="" style="fill:#342A5F" data-old_color="#342a5f"/></g><path d="m39 36.6875 2 .3125v-5h18v2h-16v5l-2-.3125a2.91076 2.91076 0 0 0 -3 2.8125 2.63105 2.63105 0 0 0 .09442.66779 2.83067 2.83067 0 0 1 -2.09442-2.66779 2.91076 2.91076 0 0 1 3-2.8125z" fill="#03c9ea" data-original="#03C9EA" class=""/></g> </svg>
