<?xml version="1.0"?>
<svg xmlns="http://www.w3.org/2000/svg" xmlns:xlink="http://www.w3.org/1999/xlink" version="1.1" id="Capa_1" x="0px" y="0px" viewBox="0 0 512.001 512.001" style="enable-background:new 0 0 512.001 512.001;" xml:space="preserve" width="512px" height="512px"><g><g>
	<g>
		<path d="M506.954,185.105C438.889,124.724,337.305,91,256,91c-81.791,0-183.196,33.995-250.954,94.105    c-6.197,5.498-6.765,14.979-1.267,21.176c5.498,6.197,14.979,6.766,21.175,1.266C92.348,147.761,189.557,121,256,121    s163.652,26.761,231.046,86.547c6.193,5.496,15.676,4.932,21.175-1.266C513.719,200.084,513.152,190.603,506.954,185.105z" data-original="#000000" class="active-path" data-old_color="#342a5f" fill="#342a5f"/>
	</g>
</g><g>
	<g>
		<path d="M509.98,278.481c-20.976-36.21-59.785-69.198-109.278-92.886C354.767,163.61,302.025,151,256,151    c-46.025,0-98.767,12.609-144.701,34.595c-49.493,23.688-88.303,56.676-109.278,92.886c-2.694,4.651-2.694,10.387,0,15.038    c20.976,36.21,59.785,69.198,109.278,92.886C157.234,408.391,209.976,421,256,421s98.767-12.609,144.701-34.595    c49.493-23.688,88.303-56.676,109.278-92.886C512.674,288.868,512.674,283.132,509.98,278.481z M150.94,370.674    c-9.079-3.396-18.013-7.176-26.689-11.329C83.735,339.953,51.582,314.136,32.681,286c18.901-28.136,51.054-53.953,91.57-73.345    c8.677-4.153,17.611-7.934,26.689-11.329C132.226,224.501,121,253.962,121,286C121,318.038,132.226,347.5,150.94,370.674z     M256,391c-57.897,0-105-47.103-105-105c0-57.897,47.103-105,105-105c57.897,0,105,47.103,105,105    C361,343.897,313.897,391,256,391z M387.749,359.345c-8.677,4.153-17.611,7.934-26.689,11.329C379.775,347.5,391,318.038,391,286    c0-32.038-11.226-61.5-29.94-84.674c9.079,3.396,18.013,7.176,26.689,11.329c40.517,19.392,72.669,45.209,91.57,73.345    C460.418,314.136,428.266,339.953,387.749,359.345z" data-original="#000000" class="active-path" data-old_color="#342a5f" fill="#342a5f"/>
	</g>
</g><g>
	<g>
		<path d="M256,211c-41.355,0-75,33.645-75,75s33.645,75,75,75c41.355,0,75-33.645,75-75C331,244.645,297.355,211,256,211z M256,331    c-24.813,0-45-20.187-45-45s20.187-45,45-45s45,20.187,45,45S280.813,331,256,331z" data-original="#000000" class="active-path" data-old_color="#342a5f" fill="#342a5f"/>
	</g>
</g><g>
	<g>
		<circle cx="256" cy="286" r="15" data-original="#000000" class="active-path" data-old_color="#342a5f" fill="#342a5f"/>
	</g>
</g></g> </svg>
