<?xml version="1.0" encoding="utf-8"?>
<!-- Generator: Adobe Illustrator 22.0.1, SVG Export Plug-In . SVG Version: 6.00 Build 0)  -->
<svg version="1.1" id="Capa_1" xmlns="http://www.w3.org/2000/svg" xmlns:xlink="http://www.w3.org/1999/xlink" x="0px" y="0px"
	 viewBox="0 0 779.5 354.9" style="enable-background:new 0 0 779.5 354.9;" xml:space="preserve">
<style type="text/css">
	.st0{fill:#FFFFFF;}
	.st1{fill:#E8DD00;}
	.st2{fill:#000C56;}
	.st3{fill:#EDEEF4;}
	.st4{fill:none;}
	.st5{font-family:'Consolas-Bold';}
	.st6{font-size:97.6259px;}
	.st7{letter-spacing:17.5;}
</style>
<path class="st0" d="M345,0l-15,277.5c-11.7-15.8-29-36.3-53.3-55.5c-0.4-0.3-0.9-0.7-1.3-1c33.7-20.1,54.6-48.3,54.6-79.6
	c0-30.8-20.3-58.6-53-78.6C307.5,40.8,329.9,17.7,345,0z"/>
<path class="st1" d="M330,141.3c0,31.3-21,59.6-54.6,79.6C158.5,129.8,0.4,159,0,149.1c-0.4-9.5,149.1,4.1,275-85
	c0.7-0.5,1.4-1,2-1.4C309.7,82.7,330,110.5,330,141.3z"/>
<path class="st2" d="M310.2,234.1c-10.1-6.1-73.3-44.3-127.1-61.4c-18.3-5.8-35.8-9.8-35.8-9.8c-6.6-1.4-11.7-2.2-13.6-2.6
	c-41.1-6.9-126-24.1-130.2-13.9c-0.6,1.5-0.3,5.3-0.8,5.4c-0.4,0-2.4-2.6-2.5-2.7l0,0H0.1h0.1H0.1c0,0,30.5,1.9,61.8-5
	c7.3-1.6,10.8-2.7,16.1-4c6.8-1.7,16.7-4.1,33-7.5c0,0,20.2-4.4,40.6-8.5c0,0,37.9-10.5,65.8-20c96.2-32.8,104.5-64.6,104.5-66v-3
	c0,0-51.6,26.6-112.6,51c-22.9,9.2-40.5,15.2-44.5,16.5c-13.6,4.6-32.5,10.6-90.7,25.5c0,0-13.9,3.7-70.6,18.4l0,0l0,0
	C0,149.1,0,149.1,0,149.1c-0.5,7.6,72.1,16.8,94.2,19.9C144.6,176.3,216.7,192.8,310.2,234.1z"/>
<path class="st2" d="M310.2,135.6c1.3,14.5,5.7,39,11,39c4.8,0,10.4-20.6,8.8-39.9c-1.7-19.7-11-39.6-15.8-39
	C308.9,96.4,308.9,121.2,310.2,135.6z"/>
<path class="st2" d="M485.9,28.2"/>
<path class="st2" d="M455.5,143.2"/>
<path class="st2" d="M378.2,186.1"/>
<path class="st3" d="M179.2,175.9"/>
<path class="st0" d="M434.6,3.1l15,277.5c11.7-15.8,29-36.3,53.3-55.5c0.4-0.3,0.9-0.7,1.3-1c-33.7-20.1-54.6-48.3-54.6-79.6
	c0-30.8,20.3-58.6,53-78.6C472,43.9,449.6,20.8,434.6,3.1z"/>
<path class="st1" d="M449.6,144.4c0,31.3,21,59.6,54.6,79.6c116.8-91.1,275-62,275.3-71.8c0.4-9.5-149.1,4.1-275-85
	c-0.7-0.5-1.4-1-2-1.4C469.8,85.8,449.6,113.6,449.6,144.4z"/>
<path class="st2" d="M469.3,237.2c10.1-6.1,73.3-44.3,127.1-61.4c18.3-5.8,35.8-9.8,35.8-9.8c6.6-1.4,11.7-2.2,13.6-2.6
	c41.1-6.9,126-24.1,130.2-13.9c0.6,1.5,0.3,5.3,0.8,5.4c0.4,0,2.4-2.6,2.5-2.7l0,0h0.1h-0.1h0.1c0,0-30.5,1.9-61.8-5
	c-7.3-1.6-10.8-2.7-16.1-4c-6.8-1.7-16.7-4.1-33-7.5c0,0-20.2-4.4-40.6-8.5c0,0-37.9-10.5-65.8-20c-96.2-32.8-104.5-64.6-104.5-66
	v-3c0,0,51.6,26.6,112.6,51c22.9,9.2,40.5,15.2,44.5,16.5c13.6,4.6,32.5,10.6,90.7,25.5c0,0,13.9,3.7,70.6,18.4l0,0l0,0
	c3.4,2.6,3.4,2.7,3.4,2.7c0.5,7.6-72.1,16.8-94.2,19.9C634.9,179.4,562.8,195.9,469.3,237.2z"/>
<path class="st2" d="M469.3,138.7c-1.3,14.5-5.7,39-11,39c-4.8,0-10.4-20.6-8.8-39.9c1.7-19.7,11-39.6,15.8-39
	C470.6,99.5,470.6,124.3,469.3,138.7z"/>
<path class="st3" d="M600.3,179"/>
<rect x="257.4" y="268" class="st4" width="254" height="86.9"/>
<text transform="matrix(1.0864 0 0 1 241.9995 325.9648)" class="st2 st5 st6 st7">COGA</text>
</svg>
