<!-- Generated by IcoMoon.io -->
<svg version="1.1" xmlns="http://www.w3.org/2000/svg" width="2048" height="1024" viewBox="0 0 2048 1024">
<title></title>
<g id="icomoon-ignore">
</g>
<path fill="#fef7d1" d="M243.801 480.422c0 0 219.464-41.088 383.158-175.948 24.485 50.95 70.024 138.061 10.339 361.563-68.376-69.8-307.355-182.414-393.497-185.615z"></path>
<path fill="#fef7d1" d="M1783.641 480.422c0 0-219.471-41.088-383.158-175.948-24.485 50.95-70.031 138.061-10.346 361.563 68.384-69.8 307.355-182.414 393.504-185.615z"></path>
<path fill="#322a5f" d="M793.664 693.151c9.14 0 17.622-2.384 25.468-7.16 7.543-4.776 13.879-12.080 19.009-21.928l19.276 8.309c-6.958 13.792-15.909 24.11-26.877 30.951-11.206 7.131-23.495 10.7-36.876 10.7-9.371 0-18.366-1.799-26.971-5.39-8.309-3.598-15.649-8.583-22.014-14.948-6.372-6.372-11.358-13.706-14.948-22.022-3.598-8.612-5.397-17.593-5.397-26.971 0-9.371 1.799-18.395 5.397-27.057 3.591-8.258 8.576-15.562 14.948-21.928 6.365-6.365 13.706-11.358 22.014-14.948 8.605-3.591 17.6-5.397 26.971-5.397 13.381 0 25.67 3.576 36.876 10.707 10.967 6.842 19.919 17.152 26.877 30.944l-19.276 8.316c-5.13-9.905-11.466-17.159-19.009-21.754-7.846-4.898-16.328-7.341-25.468-7.341-13.388 0-24.825 4.718-34.311 14.154-9.436 9.486-14.146 20.916-14.146 34.304s4.711 24.818 14.146 34.311c9.486 9.428 20.923 14.146 34.311 14.146z"></path>
<path fill="#322a5f" d="M906.319 610.389c-9.494 9.486-14.24 20.923-14.24 34.304 0 13.388 4.747 24.818 14.24 34.311 9.428 9.428 20.866 14.146 34.311 14.146 13.381 0 24.789-4.718 34.217-14.146 9.494-9.494 14.24-20.923 14.24-34.311 0-13.381-4.747-24.818-14.24-34.304-9.428-9.436-20.837-14.154-34.217-14.154-13.446 0-24.883 4.718-34.311 14.154zM913.566 708.634c-8.251-3.598-15.555-8.583-21.928-14.948-6.365-6.372-11.35-13.67-14.941-21.935-3.656-8.663-5.484-17.679-5.484-27.057 0-9.371 1.828-18.358 5.484-26.963 3.591-8.316 8.576-15.656 14.941-22.022 6.372-6.365 13.677-11.321 21.928-14.854 8.605-3.663 17.629-5.491 27.064-5.491 9.371 0 18.358 1.828 26.963 5.491 8.258 3.533 15.57 8.489 21.935 14.854 6.423 6.365 11.408 13.706 14.941 22.022 3.656 8.605 5.484 17.593 5.484 26.963 0 9.378-1.828 18.395-5.484 27.057-3.533 8.265-8.518 15.562-14.941 21.935-6.365 6.365-13.677 11.35-21.935 14.948-8.605 3.591-17.593 5.39-26.963 5.39-9.436 0-18.46-1.799-27.064-5.39z"></path>
<path fill="#322a5f" d="M1168.416 641.159c0 11.798-1.821 21.985-5.484 30.59-3.533 8.316-8.489 15.656-14.854 22.022-6.423 6.365-13.763 11.321-22.014 14.862-8.619 3.656-17.636 5.484-27.057 5.484-9.378 0-18.366-1.828-26.978-5.484-8.309-3.54-15.649-8.496-22.022-14.862-6.365-6.365-11.314-13.706-14.847-22.022-3.663-8.605-5.484-17.593-5.484-26.963 0-9.428 1.821-18.452 5.484-27.057 3.533-8.265 8.482-15.599 14.847-22.022 6.372-6.365 13.713-11.314 22.022-14.854 8.612-3.663 17.6-5.484 26.978-5.484 14.905 0 28.437 4.364 40.582 13.084 11.726 8.496 20.548 21.14 26.443 37.938h-22.816c-4.544-9.551-10.65-16.834-18.301-21.841-7.904-5.079-16.545-7.601-25.909-7.601-13.214 0-24.471 4.646-33.784 13.966-9.32 9.371-13.973 20.663-13.973 33.87s4.653 24.464 13.973 33.776c9.313 9.32 20.569 13.973 33.784 13.973 10.787 0 20.425-3.237 28.914-9.725 8.309-6.365 13.525-13.055 15.649-20.078h-47.93v-21.574z"></path>
<path fill="#322a5f" d="M1254.896 667.243l-15.916-39.347-15.916 39.347zM1295.486 711.64h-22.643l-9.457-23.445h-48.811l-9.465 23.445h-22.628l56.499-139.896z"></path>
<path fill="#322a5f" d="M712.193 201.802c-13.619 28.329-32.245 54.216-53.024 78.101-10.209 12.196-21.855 22.946-33.198 34.116-5.693 5.556-12.008 10.368-18.041 15.548-6.156 5-12.037 10.433-18.568 14.927-12.882 9.255-25.381 19.247-39.13 27.187l-20.23 12.593c-6.712 4.27-13.865 7.702-20.779 11.589l-21.024 11.177c-7.044 3.663-14.37 6.669-21.545 10.028-14.435 6.539-28.762 13.373-43.631 18.792l-22.217 8.352c-7.384 2.854-14.797 5.578-22.376 7.825l-45.185 14.248c-30.655 7.456-60.971 16.27-92.074 21.328-61.693 12.564-124.413 18.59-186.988 21.436 61.311-13.431 122.542-24.89 182.595-40.936 30.2-7.29 59.829-16.408 89.545-25.070l43.985-14.681c7.391-2.283 14.594-5.043 21.754-7.918l21.566-8.395c14.594-5.086 28.56-11.56 42.678-17.737 7.008-3.179 14.204-6.011 21.068-9.472l20.598-10.382c6.835-3.504 13.944-6.567 20.569-10.447l20.020-11.423c13.576-7.319 26.111-16.162 39.202-24.276 6.632-3.952 12.571-8.807 18.835-13.272 6.127-4.624 12.542-8.93 18.539-13.742 11.863-9.761 24.059-19.269 35.041-30.099 22.73-20.887 43.573-44.014 62.011-69.395z"></path>
<path fill="#322a5f" d="M581.894 226.499c18.279 13.893 32.852 32.368 45.38 51.788 6.502 9.674 11.574 20.092 16.892 30.467 2.89 5.108 4.833 10.577 6.972 15.989l6.394 16.278c3.815 10.989 6.791 22.26 9.941 33.502 2.695 11.329 4.436 22.838 6.69 34.289 0.477 2.876 1.199 5.729 1.467 8.619l0.694 8.692 1.394 17.39c0.419 5.802 1.026 11.603 1.272 17.405l-0.101 17.398-0.405 17.405c-0.224 5.787-0.029 11.618-0.867 17.347-1.272 11.495-2.391 23.011-3.815 34.484-1.069 11.531-3.699 22.773-6.040 34.058-2.283 11.293-4.783 22.534-7.377 33.726-6.387 22.079-13.518 43.927-20.959 65.515-9.017 21.097-17.939 42.136-27.895 62.611 4.631-22.477 10.288-44.39 15.859-66.26l13.467-66.13c1.459-11.119 3.013-22.195 4.783-33.227 1.691-11.032 3.67-22.029 4.082-33.177 0.824-11.105 1.951-22.159 2.919-33.235 0.946-11.069 0.354-22.166 0.65-33.235l0.412-16.617c-0.144-5.527-0.636-11.032-0.939-16.545l-1.026-16.545c-0.253-5.534-0.672-11.040-1.539-16.487-1.575-10.895-2.63-21.935-4.609-32.787-2.579-10.7-4.451-21.624-7.095-32.353-6.112-21.176-12.535-42.526-22.195-62.582-9.089-20.338-20.186-39.939-34.405-57.785z"></path>
<path fill="#322a5f" d="M712.193 757.145c-18.438-25.388-39.282-48.508-62.011-69.395-10.982-10.83-23.177-20.338-35.041-30.099-5.997-4.812-12.412-9.118-18.539-13.742-6.264-4.465-12.203-9.32-18.835-13.279-13.092-8.114-25.627-16.95-39.202-24.261l-20.020-11.43c-6.625-3.873-13.735-6.936-20.569-10.447l-20.598-10.382c-6.864-3.461-14.060-6.293-21.068-9.472-14.117-6.17-28.083-12.651-42.678-17.737l-21.566-8.395c-7.16-2.876-14.363-5.628-21.754-7.918l-43.985-14.681c-29.716-8.663-59.345-17.78-89.545-25.063-60.053-16.054-121.284-27.512-182.595-40.944 62.575 2.847 125.294 8.872 186.988 21.436 31.103 5.057 61.419 13.872 92.074 21.328l45.185 14.248c7.579 2.247 14.992 4.971 22.376 7.825l22.217 8.352c14.869 5.419 29.196 12.253 43.631 18.792 7.174 3.367 14.5 6.365 21.545 10.028l21.024 11.177c6.914 3.894 14.067 7.319 20.779 11.589l20.23 12.593c13.749 7.947 26.248 17.932 39.13 27.187 6.531 4.494 12.412 9.92 18.568 14.927 6.033 5.18 12.347 9.992 18.041 15.548 11.343 11.17 22.99 21.92 33.198 34.109 20.779 23.893 39.405 49.78 53.024 78.108z"></path>
<path fill="#322a5f" d="M654.828 408.889c-13.886 0-25.143 34.217-25.143 76.432 0 42.208 11.256 76.425 25.143 76.425z"></path>
<path fill="#322a5f" d="M1318.002 201.802c18.445 25.381 39.289 48.508 62.011 69.395 10.989 10.83 23.185 20.338 35.048 30.099 5.997 4.812 12.405 9.118 18.539 13.742 6.257 4.465 12.203 9.32 18.835 13.272 13.092 8.114 25.627 16.957 39.195 24.276l20.020 11.423c6.632 3.88 13.735 6.943 20.569 10.447l20.605 10.382c6.864 3.461 14.052 6.293 21.068 9.472 14.11 6.177 28.083 12.651 42.67 17.737l21.574 8.395c7.153 2.876 14.363 5.635 21.747 7.918l43.992 14.681c29.709 8.663 59.338 17.78 89.538 25.070 60.053 16.047 121.284 27.505 182.595 40.936-62.575-2.847-125.294-8.872-186.988-21.436-31.103-5.057-61.419-13.872-92.074-21.328l-45.185-14.248c-7.572-2.247-14.992-4.971-22.376-7.825l-22.217-8.352c-14.869-5.419-29.196-12.253-43.624-18.792-7.174-3.36-14.508-6.365-21.545-10.028l-21.024-11.177c-6.921-3.887-14.074-7.319-20.786-11.589l-20.23-12.593c-13.749-7.94-26.248-17.932-39.123-27.187-6.539-4.494-12.42-9.927-18.568-14.927-6.033-5.18-12.347-9.992-18.041-15.548-11.35-11.17-22.99-21.92-33.198-34.116-20.779-23.886-39.412-49.772-53.031-78.101z"></path>
<path fill="#322a5f" d="M1448.304 226.499c-14.219 17.846-25.316 37.447-34.405 57.785-9.667 20.056-16.083 41.406-22.202 62.582-2.63 10.729-4.516 21.653-7.088 32.353-1.98 10.852-3.027 21.891-4.602 32.787-0.874 5.448-1.293 10.953-1.546 16.487l-1.033 16.545c-0.296 5.513-0.788 11.018-0.932 16.545l0.412 16.617c0.296 11.069-0.296 22.166 0.643 33.235 0.975 11.076 2.095 22.13 2.919 33.235 0.419 11.148 2.391 22.144 4.097 33.177 1.763 11.032 3.316 22.108 4.776 33.227l13.467 66.13c5.57 21.87 11.235 43.783 15.859 66.26-9.949-20.475-18.879-41.514-27.895-62.611-7.442-21.588-14.565-43.436-20.959-65.515-2.594-11.191-5.094-22.433-7.377-33.726-2.348-11.285-4.971-22.527-6.047-34.058-1.416-11.473-2.529-22.99-3.808-34.484-0.838-5.729-0.643-11.56-0.867-17.347l-0.405-17.405-0.101-17.398c0.253-5.802 0.86-11.603 1.272-17.405l1.394-17.39 0.694-8.692c0.267-2.89 0.99-5.744 1.467-8.619 2.247-11.451 3.988-22.961 6.683-34.289 3.157-11.242 6.134-22.513 9.949-33.502l6.394-16.278c2.146-5.411 4.082-10.881 6.972-15.989 5.318-10.375 10.389-20.793 16.892-30.467 12.528-19.421 27.101-37.895 45.38-51.788z"></path>
<path fill="#322a5f" d="M1318.002 757.145c13.619-28.329 32.252-54.216 53.031-78.108 10.209-12.188 21.848-22.939 33.198-34.109 5.693-5.556 12.008-10.368 18.041-15.548 6.148-5.007 12.029-10.433 18.568-14.927 12.875-9.255 25.374-19.24 39.123-27.187l20.23-12.593c6.712-4.27 13.865-7.695 20.786-11.589l21.024-11.177c7.037-3.663 14.37-6.661 21.545-10.028 14.428-6.539 28.755-13.373 43.624-18.792l22.217-8.352c7.384-2.854 14.804-5.578 22.376-7.825l45.185-14.248c30.655-7.456 60.971-16.27 92.074-21.328 61.693-12.564 124.413-18.59 186.988-21.436-61.311 13.431-122.542 24.89-182.595 40.944-30.2 7.283-59.829 16.401-89.538 25.063l-43.992 14.681c-7.384 2.29-14.594 5.043-21.747 7.918l-21.574 8.395c-14.587 5.086-28.56 11.567-42.67 17.737-7.015 3.179-14.204 6.011-21.068 9.472l-20.605 10.382c-6.835 3.511-13.937 6.575-20.569 10.447l-20.020 11.43c-13.568 7.312-26.104 16.148-39.195 24.261-6.632 3.959-12.579 8.814-18.835 13.279-6.134 4.624-12.542 8.93-18.539 13.742-11.863 9.761-24.059 19.269-35.048 30.099-22.722 20.887-43.566 44.007-62.011 69.395z"></path>
<path fill="#322a5f" d="M1375.37 408.889c13.886 0 25.143 34.217 25.143 76.432 0 42.208-11.256 76.425-25.143 76.425z"></path>
<path fill="#9181a3" d="M502.805 821.563c3.475 0 6.697-0.918 9.66-2.753 2.876-1.792 5.101-4.176 6.661-7.16l4.501 1.936c-1.958 3.88-4.776 6.979-8.439 9.291-3.779 2.377-7.904 3.569-12.383 3.569-3.15 0-6.163-0.614-9.031-1.821-2.796-1.185-5.267-2.861-7.413-5.007-2.153-2.139-3.815-4.602-5.007-7.406-1.207-2.868-1.813-5.888-1.813-9.031s0.607-6.17 1.813-9.067c1.192-2.774 2.854-5.231 5.007-7.377 2.146-2.146 4.617-3.822 7.413-5.014 2.868-1.199 5.881-1.806 9.031-1.806 4.479 0 8.605 1.185 12.383 3.562 3.663 2.319 6.481 5.419 8.439 9.291l-4.501 1.936c-1.561-3.006-3.786-5.39-6.661-7.16-2.962-1.835-6.185-2.753-9.66-2.753-5.065 0-9.4 1.792-13.005 5.383-3.584 3.598-5.375 7.94-5.375 13.005s1.792 9.4 5.375 13.005c3.605 3.584 7.94 5.375 13.005 5.375z"></path>
<path fill="#9181a3" d="M529.507 780.823v44.831h26.725v-4.935h-21.79v-15.136h17.571v-4.935h-17.571v-14.876h21.79v-4.949z"></path>
<path fill="#9181a3" d="M563.271 825.655h4.935v-33.235l32.18 34.21v-45.806h-4.942v33.357l-32.172-34.232z"></path>
<path fill="#9181a3" d="M606.197 780.823v4.949h16.075v39.881h4.935v-39.881h15.88v-4.949z"></path>
<path fill="#9181a3" d="M672.48 810.464c2.5 1.647 4.479 3.793 5.939 6.445 1.481 2.709 2.218 5.614 2.218 8.72v0.036h-4.935v-0.036c0-3.641-1.293-6.77-3.88-9.378-2.601-2.615-5.744-3.909-9.414-3.909h-8.251v13.323h-4.942v-44.845h15.758c4.357 0 8.077 1.546 11.162 4.631s4.624 6.799 4.624 11.134c0 2.933-0.766 5.672-2.305 8.186-1.481 2.42-3.475 4.32-5.975 5.693zM654.158 785.77v21.624h10.816c3.006 0 5.556-1.040 7.658-3.15 2.102-2.124 3.165-4.682 3.165-7.658 0-2.984-1.062-5.527-3.165-7.629-2.102-2.124-4.653-3.186-7.658-3.186z"></path>
<path fill="#9181a3" d="M701.024 824.624c-2.774-1.178-5.231-2.854-7.377-4.992-2.153-2.146-3.815-4.617-5.007-7.384-1.228-2.897-1.842-5.917-1.842-9.074 0-3.136 0.614-6.148 1.842-9.031 1.192-2.789 2.854-5.26 5.007-7.406 2.146-2.146 4.602-3.808 7.377-4.978 2.876-1.235 5.896-1.835 9.067-1.835 3.15 0 6.156 0.6 9.031 1.835 2.774 1.17 5.231 2.832 7.377 4.978 2.175 2.146 3.844 4.617 5.014 7.406 1.228 2.883 1.842 5.896 1.842 9.031 0 3.157-0.614 6.177-1.842 9.074-1.17 2.767-2.839 5.238-5.014 7.384-2.146 2.139-4.602 3.815-7.377 4.992-2.876 1.214-5.881 1.813-9.031 1.813-3.172 0-6.192-0.6-9.067-1.813zM697.086 790.169c-3.605 3.612-5.411 7.94-5.411 13.005 0 5.072 1.806 9.4 5.411 13.012 3.584 3.584 7.918 5.383 13.005 5.383 5.065 0 9.385-1.799 12.976-5.383 3.598-3.612 5.404-7.94 5.404-13.012 0-5.065-1.806-9.392-5.404-13.005-3.591-3.576-7.911-5.375-12.976-5.375-5.086 0-9.421 1.799-13.005 5.375z"></path>
<path fill="#9181a3" d="M752.829 825.662v-44.838h15.042c3.042 0 5.946 0.6 8.72 1.785 2.666 1.12 5.043 2.717 7.124 4.776 2.066 2.088 3.663 4.465 4.783 7.131 1.192 2.774 1.792 5.686 1.792 8.72 0 3.027-0.6 5.939-1.792 8.728-1.12 2.673-2.724 5.036-4.812 7.102-2.059 2.081-4.429 3.692-7.095 4.812-2.789 1.185-5.7 1.785-8.72 1.785zM767.9 820.72c4.797-0.022 8.901-1.734 12.318-5.13 3.417-3.417 5.122-7.536 5.122-12.355 0-4.812-1.705-8.923-5.122-12.34-3.417-3.425-7.521-5.13-12.318-5.13h-10.404v34.954z"></path>
<path fill="#9181a3" d="M797.417 780.823v44.831h26.725v-4.935h-21.79v-15.136h17.571v-4.935h-17.571v-14.876h21.79v-4.949z"></path>
<path fill="#9181a3" d="M855.911 824.624c-2.774-1.178-5.231-2.854-7.377-4.992-2.153-2.146-3.815-4.617-5.007-7.384-1.228-2.897-1.842-5.917-1.842-9.074 0-3.136 0.614-6.148 1.842-9.031 1.192-2.789 2.854-5.26 5.007-7.406 2.146-2.146 4.602-3.808 7.377-4.978 2.876-1.235 5.896-1.835 9.067-1.835 3.15 0 6.156 0.6 9.031 1.835 2.774 1.17 5.231 2.832 7.377 4.978 2.175 2.146 3.844 4.617 5.007 7.406 1.235 2.883 1.85 5.896 1.85 9.031 0 3.157-0.614 6.177-1.85 9.074-1.163 2.767-2.832 5.238-5.007 7.384-2.146 2.139-4.602 3.815-7.377 4.992-2.876 1.214-5.881 1.813-9.031 1.813-3.172 0-6.192-0.6-9.067-1.813zM851.974 790.169c-3.605 3.612-5.411 7.94-5.411 13.005 0 5.072 1.806 9.4 5.411 13.012 3.584 3.584 7.918 5.383 13.005 5.383 5.065 0 9.385-1.799 12.969-5.383 3.605-3.612 5.411-7.94 5.411-13.012 0-5.065-1.806-9.392-5.411-13.005-3.584-3.576-7.904-5.375-12.969-5.375-5.086 0-9.421 1.799-13.005 5.375z"></path>
<path fill="#9181a3" d="M912 780.823c4.335 0 8.041 1.546 11.134 4.631 3.085 3.056 4.624 6.77 4.624 11.134 0 4.328-1.539 8.041-4.624 11.126-3.092 3.078-6.799 4.624-11.134 4.624h-10.845v13.323h-4.949v-44.838zM912 807.397c2.977 0 5.527-1.048 7.629-3.157 2.124-2.124 3.193-4.667 3.193-7.651s-1.069-5.534-3.193-7.666c-2.102-2.102-4.653-3.157-7.629-3.157h-10.845v21.631z"></path>
<path fill="#9181a3" d="M931.73 780.823v4.949h16.068v39.881h4.942v-39.881h15.88v-4.949z"></path>
<path fill="#9181a3" d="M983.285 824.624c-2.774-1.178-5.231-2.854-7.377-4.992-2.153-2.146-3.815-4.617-5.007-7.384-1.221-2.897-1.842-5.917-1.842-9.074 0-3.136 0.621-6.148 1.842-9.031 1.192-2.789 2.854-5.26 5.007-7.406 2.146-2.146 4.602-3.808 7.377-4.978 2.876-1.235 5.896-1.835 9.067-1.835 3.15 0 6.156 0.6 9.031 1.835 2.774 1.17 5.231 2.832 7.377 4.978 2.175 2.146 3.844 4.617 5.007 7.406 1.235 2.883 1.85 5.896 1.85 9.031 0 3.157-0.614 6.177-1.85 9.074-1.163 2.767-2.832 5.238-5.007 7.384-2.146 2.139-4.602 3.815-7.377 4.992-2.876 1.214-5.881 1.813-9.031 1.813-3.172 0-6.192-0.6-9.067-1.813zM979.348 790.169c-3.605 3.612-5.411 7.94-5.411 13.005 0 5.072 1.806 9.4 5.411 13.012 3.584 3.584 7.918 5.383 13.005 5.383 5.065 0 9.385-1.799 12.969-5.383 3.605-3.612 5.411-7.94 5.411-13.012 0-5.065-1.806-9.392-5.411-13.005-3.584-3.576-7.904-5.375-12.969-5.375-5.086 0-9.421 1.799-13.005 5.375z"></path>
<path fill="#9181a3" d="M1020.394 825.655h5.101l7.088-29.507 12.506 31.161 12.701-31.226 7.131 29.572h5.094l-11.011-45.734-13.879 34.145-13.691-34.21z"></path>
<path fill="#9181a3" d="M1077.83 780.823v44.831h26.732v-4.935h-21.79v-15.136h17.564v-4.935h-17.564v-14.876h21.79v-4.949z"></path>
<path fill="#9181a3" d="M1108.592 780.823v4.949h16.075v39.881h4.935v-39.881h15.88v-4.949z"></path>
<path fill="#9181a3" d="M1174.879 810.464c2.5 1.647 4.479 3.793 5.939 6.445 1.474 2.709 2.218 5.614 2.218 8.72v0.036h-4.942v-0.036c0-3.641-1.286-6.77-3.873-9.378-2.601-2.615-5.744-3.909-9.414-3.909h-8.251v13.323h-4.942v-44.845h15.758c4.349 0 8.070 1.546 11.162 4.631 3.085 3.085 4.624 6.799 4.624 11.134 0 2.933-0.773 5.672-2.312 8.186-1.474 2.42-3.468 4.32-5.968 5.693zM1156.557 785.77v21.624h10.816c3.006 0 5.556-1.040 7.658-3.15 2.102-2.124 3.165-4.682 3.165-7.658 0-2.984-1.062-5.527-3.165-7.629-2.102-2.124-4.653-3.186-7.658-3.186z"></path>
<path fill="#9181a3" d="M1196.074 769.133l-5.13 7.377 3.945 2.724 5.13-7.348zM1191.132 825.653h4.942v-44.831h-4.942z"></path>
<path fill="#9181a3" d="M1202.142 825.655h5.31l3.345-8.28h18.944l3.352 8.28h5.318l-18.142-44.867zM1220.27 793.952l7.478 18.517h-14.941z"></path>
<path fill="#9181a3" d="M1301.47 803.183c0 3.165-0.614 6.185-1.85 9.067-1.163 2.796-2.818 5.26-4.964 7.406-2.167 2.146-4.646 3.808-7.42 4.978-2.868 1.228-5.896 1.842-9.067 1.842-3.136 0-6.156-0.614-9.031-1.842-2.789-1.17-5.26-2.832-7.406-4.978-2.153-2.146-3.8-4.609-4.971-7.406-1.228-2.883-1.85-5.896-1.85-9.038 0-3.172 0.621-6.192 1.85-9.067 1.17-2.774 2.818-5.245 4.971-7.406 2.146-2.146 4.617-3.808 7.406-4.978 2.876-1.228 5.896-1.842 9.031-1.842 5.014 0 9.544 1.452 13.604 4.378 3.966 2.854 6.741 6.575 8.345 11.162h-5.527c-1.481-3.128-3.685-5.635-6.596-7.499-2.984-1.943-6.25-2.912-9.826-2.912-5 0-9.27 1.763-12.817 5.318-3.54 3.562-5.31 7.846-5.31 12.846s1.77 9.27 5.31 12.817c3.547 3.555 7.817 5.318 12.817 5.318 4.097 0 7.752-1.228 10.982-3.685 3.165-2.428 5.31-5.549 6.445-9.349h-17.361v-5.13z"></path>
<path fill="#9181a3" d="M1306.445 825.655h5.31l3.345-8.28h18.944l3.352 8.28h5.318l-18.142-44.867zM1324.572 793.952l7.478 18.517h-14.941z"></path>
<path fill="#9181a3" d="M1348.743 780.823v44.831h27.982v-4.935h-23.047v-39.896z"></path>
<path fill="#9181a3" d="M1383.76 780.823v44.831h27.982v-4.935h-23.040v-39.896z"></path>
<path fill="#9181a3" d="M1418.748 780.823v44.831h26.732v-4.935h-21.79v-15.136h17.564v-4.935h-17.564v-14.876h21.79v-4.949z"></path>
<path fill="#9181a3" d="M1497.129 803.183c0 3.165-0.614 6.185-1.842 9.067-1.17 2.796-2.825 5.26-4.971 7.406-2.167 2.146-4.646 3.808-7.42 4.978-2.868 1.228-5.888 1.842-9.067 1.842-3.136 0-6.156-0.614-9.031-1.842-2.789-1.17-5.26-2.832-7.406-4.978s-3.8-4.609-4.964-7.406c-1.243-2.883-1.857-5.896-1.857-9.038 0-3.172 0.614-6.192 1.857-9.067 1.163-2.774 2.818-5.245 4.964-7.406 2.146-2.146 4.617-3.808 7.406-4.978 2.876-1.228 5.896-1.842 9.031-1.842 5.014 0 9.551 1.452 13.604 4.378 3.959 2.854 6.748 6.575 8.345 11.162h-5.527c-1.481-3.128-3.677-5.635-6.589-7.499-2.984-1.943-6.257-2.912-9.833-2.912-4.992 0-9.27 1.763-12.81 5.318-3.54 3.562-5.318 7.846-5.318 12.846s1.777 9.27 5.318 12.817c3.54 3.555 7.817 5.318 12.81 5.318 4.089 0 7.752-1.228 10.982-3.685 3.165-2.428 5.31-5.549 6.445-9.349h-17.361v-5.13z"></path>
<path fill="#9181a3" d="M1518.324 824.624c-2.774-1.178-5.231-2.854-7.377-4.992-2.139-2.146-3.815-4.617-5.007-7.384-1.228-2.897-1.842-5.917-1.842-9.074 0-3.136 0.614-6.148 1.842-9.031 1.192-2.789 2.868-5.26 5.007-7.406 2.146-2.146 4.602-3.808 7.377-4.978 2.876-1.235 5.896-1.835 9.067-1.835 3.143 0 6.156 0.6 9.038 1.835 2.774 1.17 5.224 2.832 7.369 4.978 2.175 2.146 3.844 4.617 5.014 7.406 1.228 2.883 1.842 5.896 1.842 9.031 0 3.157-0.614 6.177-1.842 9.074-1.17 2.767-2.839 5.238-5.014 7.384-2.146 2.139-4.595 3.815-7.369 4.992-2.883 1.214-5.896 1.813-9.038 1.813-3.172 0-6.192-0.6-9.067-1.813zM1514.386 790.169c-3.612 3.612-5.411 7.94-5.411 13.005 0 5.072 1.799 9.4 5.411 13.012 3.584 3.584 7.926 5.383 13.005 5.383 5.065 0 9.4-1.799 12.976-5.383 3.612-3.612 5.411-7.94 5.411-13.012 0-5.065-1.799-9.392-5.411-13.005-3.576-3.576-7.911-5.375-12.976-5.375-5.079 0-9.421 1.799-13.005 5.375z"></path>
</svg>
