<?xml version="1.0" encoding="utf-8"?>
<!-- Generator: Adobe Illustrator 22.0.1, SVG Export Plug-In . SVG Version: 6.00 Build 0)  -->
<svg version="1.1" id="Capa_1" xmlns="http://www.w3.org/2000/svg" xmlns:xlink="http://www.w3.org/1999/xlink" x="0px" y="0px"
	 viewBox="0 0 1366 768" style="enable-background:new 0 0 1366 768;" xml:space="preserve">
<style type="text/css">
	.st0{fill:#FFFFFF;}
	.st1{fill:#E8DD00;}
	.st2{fill:#000C56;}
	.st3{fill:#EDEEF4;}
</style>
<path class="st0" d="M710.6,321.9l-15,277.5c-11.7-15.8-29-36.3-53.3-55.5c-0.4-0.3-0.9-0.7-1.3-1c33.7-20.1,54.6-48.3,54.6-79.6
	c0-30.8-20.3-58.6-53-78.6C673.2,362.7,695.5,339.6,710.6,321.9z"/>
<path class="st1" d="M695.6,463.3c0,31.3-21,59.6-54.6,79.6c-116.8-91.1-275-62-275.3-71.8c-0.4-9.5,149.1,4.1,275-85
	c0.7-0.5,1.4-1,2-1.4C675.3,404.6,695.6,432.5,695.6,463.3z"/>
<path class="st2" d="M675.9,556c-10.1-6.1-73.3-44.3-127.1-61.4c-18.3-5.8-35.8-9.8-35.8-9.8c-6.6-1.4-11.7-2.2-13.6-2.6
	c-41.1-6.9-126-24.1-130.2-13.9c-0.6,1.5-0.3,5.3-0.8,5.4c-0.4,0-2.4-2.6-2.5-2.7c0,0,0,0,0,0c0,0-0.1,0-0.1,0c0,0,0.1,0,0.1,0
	s-0.1,0-0.1,0c0,0,30.5,1.9,61.8-5c7.3-1.6,10.8-2.7,16.1-4c6.8-1.7,16.7-4.1,33-7.5c0,0,20.2-4.4,40.6-8.5c0,0,37.9-10.5,65.8-20
	c96.2-32.8,104.5-64.6,104.5-66c0,0,0-3,0-3c0,0-51.6,26.6-112.6,51c-22.9,9.2-40.5,15.2-44.5,16.5c-13.6,4.6-32.5,10.6-90.7,25.5
	c0,0-13.9,3.7-70.6,18.4l0,0l0,0c-3.4,2.6-3.4,2.7-3.4,2.7c-0.5,7.6,72.1,16.8,94.2,19.9C510.2,498.2,582.3,514.7,675.9,556z"/>
<path class="st2" d="M675.9,457.5c1.3,14.5,5.7,39,11,39c4.8,0,10.4-20.6,8.8-39.9c-1.7-19.7-11-39.6-15.8-39
	C674.5,418.3,674.6,443.1,675.9,457.5z"/>
<path class="st2" d="M912,347"/>
<path class="st2" d="M881.7,462"/>
<path class="st2" d="M743.8,508"/>
<path class="st3" d="M544.8,497.9"/>
</svg>
